<svg width="21" height="17" viewBox="0 0 21 17" fill="none" xmlns="http://www.w3.org/2000/svg">
    <path d="M20.5385 1.61968H0.887131C0.815408 1.61968 0.746623 1.59127 0.695907 1.54069C0.645191 1.49011 0.616699 1.42151 0.616699 1.34998V0.271168C0.616699 0.199638 0.645191 0.131038 0.695907 0.0804592C0.746623 0.02988 0.815408 0.00146484 0.887131 0.00146484H20.5385C20.6103 0.00146484 20.679 0.02988 20.7298 0.0804592C20.7805 0.131038 20.809 0.199638 20.809 0.271168V1.34998C20.809 1.42151 20.7805 1.49011 20.7298 1.54069C20.679 1.59127 20.6103 1.61968 20.5385 1.61968ZM20.5385 8.81177H0.887131C0.815408 8.81177 0.746623 8.78335 0.695907 8.73277C0.645191 8.68219 0.616699 8.61359 0.616699 8.54206V7.46325C0.616699 7.39172 0.645191 7.32312 0.695907 7.27254C0.746623 7.22196 0.815408 7.19355 0.887131 7.19355H20.5385C20.6103 7.19355 20.679 7.22196 20.7298 7.27254C20.7805 7.32312 20.809 7.39172 20.809 7.46325V8.54206C20.809 8.61359 20.7805 8.68219 20.7298 8.73277C20.679 8.78335 20.6103 8.81177 20.5385 8.81177ZM20.5385 16.0038H0.887131C0.815408 16.0038 0.746623 15.9754 0.695907 15.9249C0.645191 15.8743 0.616699 15.8057 0.616699 15.7341V14.6553C0.616699 14.5838 0.645191 14.5152 0.695907 14.4646C0.746623 14.414 0.815408 14.3856 0.887131 14.3856H20.5385C20.6103 14.3856 20.679 14.414 20.7298 14.4646C20.7805 14.5152 20.809 14.5838 20.809 14.6553V15.7341C20.809 15.8057 20.7805 15.8743 20.7298 15.9249C20.679 15.9754 20.6103 16.0038 20.5385 16.0038Z" fill="#1935D8"/>
</svg>
