<svg width="55" height="64" viewBox="0 0 55 64" fill="none" xmlns="http://www.w3.org/2000/svg">
    <path d="M10.577 17.0668C10.8478 17.0668 11.1185 16.9622 11.3248 16.7542L15.5556 12.4876C15.9691 12.0705 15.9691 11.3964 15.5556 10.9793C15.142 10.5622 14.4735 10.5622 14.06 10.9793L9.82921 15.246C9.41565 15.663 9.41565 16.3372 9.82921 16.7542C10.0355 16.9622 10.3062 17.0668 10.577 17.0668Z" fill="#1935D8"/>
    <path d="M10.577 22.4C10.8478 22.4 11.1185 22.2955 11.3248 22.0875L13.4402 19.9541C13.8537 19.5371 13.8537 18.8629 13.4402 18.4459C13.0266 18.0288 12.3582 18.0288 11.9446 18.4459L9.82921 20.5792C9.41565 20.9963 9.41565 21.6704 9.82921 22.0875C10.0355 22.2955 10.3062 22.4 10.577 22.4Z" fill="#1935D8"/>
    <path d="M14.0567 16.3094C13.8663 16.5121 13.75 16.7894 13.75 17.0668C13.75 17.3441 13.8663 17.6214 14.0567 17.8241C14.2577 18.0161 14.5327 18.1334 14.8077 18.1334C15.0827 18.1334 15.3577 18.0161 15.5587 17.8241C15.749 17.6214 15.8654 17.3548 15.8654 17.0668C15.8654 16.7788 15.749 16.5121 15.5587 16.3094C15.1673 15.9148 14.4481 15.9148 14.0567 16.3094Z" fill="#1935D8"/>
    <path d="M16.1754 15.6876C16.3817 15.8956 16.6524 16.0001 16.9232 16.0001C17.194 16.0001 17.4647 15.8956 17.671 15.6876L20.8441 12.4876C21.2576 12.0705 21.2576 11.3964 20.8441 10.9793C20.4305 10.5622 19.762 10.5622 19.3485 10.9793L16.1754 14.1793C15.7618 14.5964 15.7618 15.2705 16.1754 15.6876Z" fill="#1935D8"/>
    <path d="M19.3484 16.3126L9.82921 25.9126C9.41565 26.3296 9.41565 27.0038 9.82921 27.4208C10.0355 27.6288 10.3062 27.7334 10.577 27.7334C10.8478 27.7334 11.1185 27.6288 11.3248 27.4208L20.844 17.8208C21.2576 17.4038 21.2576 16.7296 20.844 16.3126C20.4305 15.8955 19.762 15.8955 19.3484 16.3126Z" fill="#1935D8"/>
    <path d="M21.4605 14.1759C21.2702 14.3785 21.1538 14.6559 21.1538 14.9332C21.1538 15.2105 21.2702 15.4879 21.4605 15.6905C21.6615 15.8825 21.9365 15.9999 22.2115 15.9999C22.4865 15.9999 22.7615 15.8825 22.9625 15.6905C23.1528 15.4879 23.2692 15.2105 23.2692 14.9332C23.2692 14.6559 23.1528 14.3785 22.9625 14.1759C22.5711 13.7812 21.8625 13.7812 21.4605 14.1759Z" fill="#1935D8"/>
    <path d="M24.6369 10.9793L23.5792 12.046C23.1657 12.463 23.1657 13.1372 23.5792 13.5542C23.7855 13.7622 24.0562 13.8668 24.327 13.8668C24.5978 13.8668 24.8685 13.7622 25.0748 13.5542L26.1325 12.4876C26.546 12.0705 26.546 11.3964 26.1325 10.9793C25.7189 10.5622 25.0505 10.5622 24.6369 10.9793Z" fill="#1935D8"/>
    <path d="M50.618 0H4.38202C1.96519 0 0 1.98187 0 4.4192V48.9152C0 51.2992 1.88587 53.2363 4.23077 53.3184V64H50.7692V53.3184C53.1141 53.2363 55 51.2992 55 48.9152V4.4192C55 1.98187 53.0348 0 50.618 0ZM48.6538 61.8667H6.34615V53.3333H48.6538V61.8667ZM52.8846 48.9141C52.8846 50.1749 51.8682 51.2 50.618 51.2H4.38202C3.13183 51.2 2.11538 50.1749 2.11538 48.9141V4.4192C2.11538 3.1584 3.13183 2.13333 4.38202 2.13333H50.619C51.8682 2.13333 52.8846 3.1584 52.8846 4.4192V48.9141Z" fill="#1935D8"/>
    <path d="M47.5962 60.8V54.4H41.25H33.8462V60.8H41.25H47.5962ZM45.4808 56.5334V58.6667H43.3654V56.5334H45.4808ZM35.9616 58.6667V56.5334H41.25V58.6667H35.9616Z" fill="#1935D8"/>
    <path d="M45.6161 5.33325H9.38379C6.54283 5.33325 4.23071 7.66498 4.23071 10.5301V33.2031C4.23071 36.0682 6.54283 38.3999 9.38379 38.3999H45.6161C48.4571 38.3999 50.7692 36.0682 50.7692 33.2031V10.5301C50.7692 7.66498 48.4571 5.33325 45.6161 5.33325ZM48.6538 33.2031C48.6538 34.8917 47.2904 36.2666 45.6161 36.2666H9.38379C7.70946 36.2666 6.3461 34.8917 6.3461 33.2031V10.5301C6.3461 8.84152 7.70946 7.46659 9.38379 7.46659H45.6161C47.2904 7.46659 48.6538 8.84152 48.6538 10.5301V33.2031Z" fill="#1935D8"/>
    <path d="M6.34619 50.1335H12.6923V44.8002H6.34619V50.1335ZM8.46158 46.9335H10.577V48.0002H8.46158V46.9335Z" fill="#1935D8"/>
    <path d="M47.5961 41.6H38.0768V43.7333H28.5576V45.8666H38.0768V48H47.5961V45.8666H49.7115V43.7333H47.5961V41.6ZM45.4807 45.8666H40.1922V43.7333H45.4807V45.8666Z" fill="#1935D8"/>
</svg>
