<svg width="33" height="37" viewBox="0 0 33 37" fill="none" xmlns="http://www.w3.org/2000/svg">
    <path d="M16.3454 14.2463C18.5723 14.2463 20.3845 16.0356 20.3845 18.2353C20.3845 20.4349 18.5723 22.2242 16.3454 22.2242C14.1185 22.2242 12.3062 20.4349 12.3062 18.2353C12.3062 16.0356 14.1185 14.2463 16.3454 14.2463ZM16.3454 19.9448C17.3016 19.9448 18.0761 19.1791 18.0761 18.2353C18.0761 17.2907 17.3009 16.5257 16.3454 16.5257C15.3899 16.5257 14.6146 17.2907 14.6146 18.2353C14.6146 19.1791 15.3892 19.9448 16.3454 19.9448ZM2.73591 18.2353C1.61453 16.7914 0.809729 15.3419 0.434731 13.9614C-0.000118256 12.3508 0.1506 10.8685 0.871746 9.67396C2.1864 7.50139 5.22459 6.61385 9.0582 6.93653C10.7349 2.69398 13.349 0 16.3454 0C19.3418 0 21.9559 2.69326 23.6319 6.93582C27.4662 6.61314 30.5037 7.50068 31.8169 9.67467C32.5402 10.8685 32.6909 12.3508 32.256 13.9614C31.8811 15.3419 31.0763 16.7914 29.9549 18.2353C31.0763 19.6791 31.8811 21.1287 32.256 22.5092C32.6909 24.1197 32.5402 25.602 31.819 26.7966C30.676 28.6842 28.2421 29.6117 25.1088 29.6117C24.6501 29.6117 24.1352 29.5297 23.6484 29.4899C21.9732 33.7581 19.3519 36.4706 16.3454 36.4706C13.3389 36.4706 10.7176 33.7581 9.04234 29.4899C8.55556 29.5297 8.04067 29.6117 7.58202 29.6117C4.45152 29.6117 2.01476 28.6842 0.873909 26.7966C0.1506 25.602 -0.000839233 24.1197 0.434731 22.5092C0.809729 21.1287 1.61453 19.6791 2.73591 18.2353ZM30.0248 13.3716C30.3017 12.3565 30.2368 11.5053 29.8352 10.8429C29.1703 9.74091 27.4756 9.13473 25.1376 9.13473C24.8975 9.13473 24.6379 9.15397 24.3847 9.16679C24.785 10.5715 25.0893 12.0994 25.2912 13.7171C26.4472 14.6003 27.503 15.5178 28.4152 16.4559C29.1883 15.3946 29.7594 14.3489 30.0248 13.3716ZM25.5443 19.5694C26.0383 19.1278 26.4977 18.6833 26.9239 18.2353C26.4984 17.7872 26.0383 17.3427 25.5443 16.9011C25.5595 17.3435 25.5775 17.7837 25.5775 18.2353C25.5775 18.6869 25.5602 19.1271 25.5443 19.5694ZM29.8373 25.6277C30.2361 24.9652 30.3017 24.114 30.0241 23.099C29.7587 22.1217 29.1876 21.076 28.4152 20.0146C27.503 20.9528 26.4465 21.8702 25.2912 22.7535C25.0893 24.3733 24.7842 25.9019 24.384 27.308C27.1042 27.4469 29.101 26.8436 29.8373 25.6277ZM10.0209 11.8999C10.6253 11.521 11.2397 11.147 11.8829 10.793C12.3466 10.5373 12.8103 10.3008 13.2733 10.07C12.3546 9.7979 11.4762 9.59418 10.6361 9.44317C10.3906 10.2517 10.1853 11.0716 10.0209 11.8999ZM16.3454 2.27941C14.6096 2.27941 12.7743 4.13357 11.4272 7.26348C12.9928 7.57049 14.6493 8.05842 16.3447 8.71304C18.0408 8.05842 19.6973 7.56906 21.2636 7.26206C19.9165 4.13285 18.0812 2.27941 16.3454 2.27941ZM22.0547 9.44317C21.2146 9.59418 20.3362 9.79719 19.4182 10.07C19.8812 10.3008 20.3449 10.5373 20.8078 10.793C21.4511 11.147 22.0655 11.521 22.6698 11.8999C22.5055 11.0716 22.3002 10.2517 22.0547 9.44317ZM22.6698 24.5706C22.0655 24.9496 21.4511 25.3235 20.8078 25.6775C20.3232 25.9447 19.843 26.1398 19.3591 26.3799C20.2966 26.6598 21.1973 26.8757 22.054 27.0302C22.2876 26.2588 22.4975 25.4418 22.6698 24.5706ZM16.3454 34.1911C18.0877 34.1911 19.9309 32.3227 21.2795 29.1707C19.7059 28.8652 18.0509 28.3808 16.3454 27.7233C14.6399 28.3815 12.9848 28.8652 11.4113 29.1707C12.7598 32.3227 14.6031 34.1911 16.3454 34.1911ZM10.6361 27.0295C11.4921 26.8757 12.3921 26.6598 13.3296 26.3799C12.8464 26.1398 12.3661 25.9447 11.8822 25.6783C11.2389 25.3242 10.6245 24.9503 10.0202 24.5713C10.1933 25.4411 10.4024 26.2574 10.6361 27.0295ZM9.57671 21.5169C10.6411 22.2805 11.7827 23.0149 13.005 23.688C14.1372 24.312 15.2529 24.8413 16.3439 25.2979C17.4358 24.8413 18.5521 24.312 19.6857 23.688C20.9081 23.0142 22.0497 22.2805 23.1141 21.5169C23.2143 20.4684 23.2698 19.3743 23.2698 18.2353C23.2698 17.0963 23.2143 16.0022 23.1141 14.9536C22.0497 14.19 20.9081 13.4556 19.6857 12.7825C18.5543 12.1592 17.4365 11.6229 16.3461 11.1663C15.255 11.6229 14.1372 12.1592 13.005 12.7825C11.7827 13.4564 10.6411 14.19 9.57671 14.9536C9.47719 16.0022 9.42094 17.0963 9.42094 18.2353C9.42094 19.3743 9.47719 20.4684 9.57671 21.5169ZM7.55245 9.13402C5.21521 9.13402 3.5198 9.74091 2.85274 10.8422C2.45394 11.5046 2.38832 12.3558 2.66596 13.3709C2.93134 14.3482 3.50249 15.3938 4.27484 16.4552C5.18709 15.5171 6.24357 14.5996 7.39885 13.7163C7.60077 12.098 7.90509 10.5708 8.30533 9.16607C8.0522 9.15325 7.79259 9.13402 7.55245 9.13402ZM7.14644 16.9011C6.65246 17.3427 6.19309 17.7872 5.76689 18.2353C6.19309 18.6833 6.65246 19.1278 7.14644 19.5694C7.1313 19.1271 7.11327 18.6869 7.11327 18.2353C7.11327 17.7837 7.13058 17.3435 7.14644 16.9011ZM2.85562 25.6277C3.58831 26.8436 5.58516 27.4469 8.30677 27.3066C7.90581 25.9005 7.60149 24.3726 7.39957 22.7535C6.24357 21.8702 5.18781 20.9528 4.27556 20.0146C3.50321 21.076 2.93134 22.1217 2.66668 23.099C2.38904 24.114 2.45394 24.9652 2.85562 25.6277Z" fill="#1935D8"/>
</svg>
