<svg width="64" height="64" viewBox="0 0 64 64" fill="none" xmlns="http://www.w3.org/2000/svg">
    <path d="M62.9677 36.129C63.5388 36.129 64 35.6678 64 35.0968V28.9032C64 28.3337 63.5388 27.871 62.9677 27.871H60.6048C60.4592 26.8614 60.2591 25.8538 60.006 24.8579L63.2339 23.5428C63.4879 23.4395 63.6895 23.2394 63.7969 22.9874C63.9027 22.7344 63.9042 22.4506 63.8009 22.1966L61.5968 16.7888C61.381 16.2611 60.7762 16.0071 60.252 16.2218L57.0252 17.5358C56.4274 16.5045 55.7616 15.5055 55.0378 14.5499L57.504 12.0837C57.9078 11.6799 57.9078 11.0277 57.504 10.624L53.375 6.49496C52.9713 6.09123 52.319 6.09123 51.9153 6.49496L49.4481 8.96119C48.5842 8.30544 47.682 7.69758 46.753 7.14415L48.1063 3.93296C48.2127 3.67994 48.2137 3.39617 48.1104 3.14214C48.0071 2.8881 47.808 2.687 47.5549 2.58065L42.1729 0.31502C41.6537 0.0957662 41.0423 0.339718 40.8206 0.865927L39.4693 4.0756C38.373 3.78427 37.255 3.55595 36.129 3.39516V1.03226C36.129 0.462702 35.6678 0 35.0968 0H28.9032C28.3322 0 27.871 0.462702 27.871 1.03226V3.39516C26.8614 3.54083 25.8538 3.74093 24.8579 3.99496L23.5428 0.767137C23.3271 0.238407 22.7223 -0.0146169 22.1976 0.200101L16.7898 2.40323C16.5358 2.50655 16.3347 2.70665 16.2273 2.95867C16.121 3.21119 16.12 3.49546 16.2228 3.74899L17.5368 6.9748C16.5071 7.57157 15.5076 8.2374 14.5509 8.96321L12.0837 6.49698C11.6799 6.09325 11.0277 6.09325 10.624 6.49698L6.49496 10.626C6.09123 11.0297 6.09123 11.682 6.49496 12.0857L8.96119 14.5519C8.30544 15.4168 7.69758 16.3191 7.14415 17.248L3.93296 15.8957C3.4128 15.6769 2.80242 15.9204 2.58065 16.4471L0.31502 21.8281C0.0937499 22.3533 0.339718 22.9587 0.865927 23.1804L4.0756 24.5328C3.78427 25.627 3.55595 26.745 3.39516 27.871H1.03226C0.46119 27.871 0 28.3337 0 28.9032V35.0968C0 35.6678 0.46119 36.129 1.03226 36.129H3.39516C3.54083 37.1386 3.74093 38.1462 3.99395 39.1421L0.766129 40.4572C0.512097 40.5605 0.310484 40.7596 0.203125 41.0126C0.0972782 41.2646 0.0957662 41.5494 0.199093 41.8024L2.40323 47.2102C2.50655 47.4642 2.70565 47.6653 2.95867 47.7727C3.21119 47.88 3.49647 47.881 3.74798 47.7772L6.97379 46.4632C7.57157 47.4939 8.2374 48.4934 8.9622 49.4491L6.49597 51.9163C6.09224 52.3201 6.09224 52.9723 6.49597 53.376L10.625 57.505C11.0287 57.9088 11.6809 57.9088 12.0847 57.505L14.5519 55.0388C15.4158 55.6946 16.318 56.3024 17.247 56.8558L15.8936 60.067C15.6729 60.5927 15.9183 61.1976 16.4451 61.4194L21.8271 63.685C22.0801 63.7903 22.3639 63.7933 22.6169 63.6895C22.8705 63.5862 23.0721 63.3866 23.1794 63.1341L24.5307 59.9244C25.627 60.2167 26.746 60.4451 27.871 60.6058V62.9677C27.871 63.5388 28.3322 64 28.9032 64H35.0968C35.6678 64 36.129 63.5388 36.129 62.9677V60.6048C37.1386 60.4592 38.1462 60.2591 39.1421 60.006L40.4572 63.2339C40.5605 63.4879 40.7596 63.6895 41.0126 63.7969C41.2656 63.9027 41.5504 63.9052 41.8024 63.8009L47.2102 61.5968C47.4642 61.4934 47.6653 61.2944 47.7727 61.0413C47.879 60.7898 47.88 60.5045 47.7772 60.252L46.4632 57.0262C47.4939 56.4284 48.4934 55.7626 49.4491 55.0378L51.9163 57.504C52.3201 57.9078 52.9723 57.9078 53.376 57.504L57.505 53.375C57.9088 52.9713 57.9088 52.319 57.505 51.9153L55.0388 49.4481C55.6946 48.5842 56.3024 47.682 56.8558 46.753L60.067 48.1063C60.5872 48.3231 61.1976 48.0827 61.4194 47.5549L63.685 42.1729C63.7913 41.9209 63.7923 41.6361 63.6895 41.3831C63.5862 41.1295 63.3866 40.9279 63.1341 40.8206L59.9244 39.4693C60.2167 38.373 60.4451 37.254 60.6058 36.129H62.9677ZM58.2812 41.0176L61.381 42.3226L59.9163 45.8024L56.8135 44.4955C56.3301 44.2944 55.7646 44.4864 55.5096 44.9476C54.748 46.3266 53.8558 47.6502 52.8589 48.8815C52.5262 49.2923 52.5575 49.8881 52.9309 50.2616L55.3145 52.6452L52.6452 55.3145L50.2616 52.9309C49.8881 52.5564 49.2923 52.5262 48.8815 52.8589C47.5655 53.9254 46.1502 54.8674 44.6739 55.6603C44.2087 55.9093 44.0071 56.4698 44.2067 56.9592L45.4753 60.0756L41.9788 61.5L40.7092 58.3815C40.5111 57.8921 39.9783 57.6341 39.4672 57.7787C37.9934 58.2036 36.4844 58.504 34.9834 58.6694C34.4607 58.7273 34.0645 59.1688 34.0645 59.6956V61.9355H29.9355V59.6956C29.9355 59.1688 29.5393 58.7273 29.0156 58.6694C27.3962 58.4909 25.7858 58.1628 24.2313 57.694C23.7213 57.5423 23.1865 57.7964 22.9813 58.2812L21.6774 61.381L18.1976 59.9163L19.5045 56.8135C19.7087 56.3271 19.5136 55.7646 19.0524 55.5096C17.6734 54.748 16.3498 53.8558 15.1184 52.8589C14.7087 52.5277 14.1119 52.5564 13.7384 52.9309L11.3548 55.3145L8.68548 52.6452L11.0691 50.2616C11.4425 49.8881 11.4748 49.2933 11.1411 48.8815C10.0746 47.5655 9.13256 46.1502 8.33972 44.6739C8.09073 44.2087 7.53024 44.005 7.04083 44.2067L3.9244 45.4753L2.5 41.9788L5.61845 40.7092C6.10786 40.5111 6.36794 39.9743 6.22127 39.4672C5.79637 37.9934 5.49597 36.4844 5.33065 34.9834C5.27268 34.4607 4.83115 34.0645 4.30444 34.0645H2.06452V29.9355H4.30444C4.83115 29.9355 5.27268 29.5403 5.33065 29.0166C5.50907 27.3962 5.8372 25.7868 6.30595 24.2324C6.45867 23.7263 6.20514 23.1875 5.71875 22.9834L2.61895 21.6774L4.08367 18.1986L7.18649 19.5045C7.67288 19.7077 8.23538 19.5136 8.49143 19.0514C9.25101 17.6744 10.1431 16.3498 11.1411 15.1174C11.4738 14.7077 11.4425 14.1109 11.0691 13.7384L8.68548 11.3548L11.3548 8.68548L13.7384 11.0691C14.1119 11.4435 14.7077 11.4738 15.1184 11.1411C16.4355 10.0736 17.8518 9.13155 19.3261 8.34073C19.7913 8.09073 19.9929 7.53024 19.7933 7.04083L18.5247 3.92591L22.0212 2.50101L23.2918 5.61946C23.4899 6.10786 24.0297 6.36996 24.5338 6.22127C26.0055 5.79637 27.5146 5.49597 29.0166 5.33065C29.5393 5.27268 29.9355 4.83115 29.9355 4.30444V2.06452H34.0645V4.30444C34.0645 4.83115 34.4607 5.27268 34.9844 5.33065C36.6048 5.50907 38.2152 5.83821 39.7686 6.30696C40.2757 6.45867 40.8145 6.20615 41.0186 5.71976L42.3226 2.61996L45.8024 4.08468L44.4955 7.18548C44.2913 7.67187 44.4864 8.23438 44.9476 8.49042C46.3276 9.25202 47.6512 10.1442 48.8815 11.1411C49.2913 11.4738 49.8881 11.4435 50.2616 11.0691L52.6452 8.68548L55.3145 11.3548L52.9309 13.7384C52.5575 14.1119 52.5252 14.7067 52.8589 15.1174C53.9239 16.4325 54.8664 17.8488 55.6603 19.3261C55.9093 19.7903 56.4708 19.9919 56.9592 19.7933L60.0756 18.5237L61.5 22.0202L58.3815 23.2898C57.8921 23.4889 57.6321 24.0247 57.7787 24.5328C58.2036 26.0055 58.504 27.5146 58.6694 29.0166C58.7283 29.5403 59.1688 29.9355 59.6956 29.9355H61.9355V34.0645H59.6956C59.1688 34.0645 58.7273 34.4607 58.6694 34.9844C58.4909 36.6038 58.1628 38.2142 57.694 39.7686C57.5403 40.2747 57.7938 40.8135 58.2812 41.0176Z" fill="#1935D8"/>
    <path fill-rule="evenodd" clip-rule="evenodd" d="M32 7.22583C18.3402 7.22583 7.22583 17.2646 7.22583 30.9244C7.22583 30.9966 7.22614 31.191 7.22676 31.4252C7.22845 32.0636 7.80164 32.5369 8.42964 32.4218C8.92774 32.3305 9.29132 31.8937 9.29151 31.3873C9.29164 31.0326 9.29186 30.6967 9.29186 30.6555C9.29186 20.659 15.7853 13.502 24.7742 10.4753V15.0565L21.6971 18.1336C21.0827 17.7702 20.377 17.5484 19.6129 17.5484C17.3357 17.5484 15.4839 19.4002 15.4839 21.6774C15.4839 23.9547 17.3357 25.8064 19.6129 25.8064C21.8901 25.8064 23.742 23.9547 23.742 21.6774C23.742 20.9133 23.5202 20.2077 23.1568 19.5933L26.5363 16.2138C26.7304 16.0207 26.8387 15.7576 26.8387 15.4839V9.8891C27.5156 9.73089 28.2047 9.60332 28.9033 9.50708V21.2501L21.6971 28.4562C21.0827 28.0928 20.377 27.871 19.6129 27.871C17.3357 27.871 15.4839 29.7228 15.4839 32.0001C15.4839 34.2772 17.3357 36.1291 19.6129 36.1291C21.8901 36.1291 23.742 34.2772 23.742 32.0001C23.742 31.2359 23.5202 30.5303 23.1568 29.9158L25.8065 27.2661V32.8502C25.8065 33.4203 26.2686 33.8824 26.8387 33.8824C27.4088 33.8824 27.871 33.4203 27.871 32.8502V25.2016L30.6653 22.4073C30.8594 22.2142 30.9678 21.9511 30.9678 21.6774V9.31604C31.3105 9.30041 31.6543 9.29037 32 9.29037C44.5222 9.29037 54.7097 19.4779 54.7097 32.0001C54.7097 41.9965 48.2147 50.498 39.2258 53.5247V48.9436L42.3029 45.8665C42.9174 46.2299 43.623 46.4516 44.3871 46.4516C46.6643 46.4516 48.5162 44.5998 48.5162 42.3226C48.5162 40.0454 46.6643 38.1936 44.3871 38.1936C42.1099 38.1936 40.2581 40.0454 40.2581 42.3226C40.2581 43.0867 40.4799 43.7924 40.8433 44.4068L37.4637 47.7863C37.2697 47.9794 37.1613 48.2415 37.1613 48.5161V54.1109C36.4844 54.2692 35.7954 54.3967 35.0968 54.493V42.75L42.3029 35.5439C42.9174 35.9073 43.623 36.1291 44.3871 36.1291C46.6643 36.1291 48.5162 34.2772 48.5162 32.0001C48.5162 29.7228 46.6643 27.871 44.3871 27.871C42.1099 27.871 40.2581 29.7228 40.2581 32.0001C40.2581 32.7641 40.4799 33.4698 40.8433 34.0842L38.1936 36.7339V32.4945C38.1936 31.9244 37.7314 31.4622 37.1613 31.4622C36.5912 31.4622 36.1291 31.9244 36.1291 32.4945V38.7984L33.3347 41.5928C33.1406 41.7858 33.0323 42.0479 33.0323 42.3226V54.684C32.6895 54.6996 32.3458 54.7097 32 54.7097C22.793 54.7097 14.8481 49.2023 11.2867 41.3088C11.0838 40.8591 10.6051 40.5941 10.1199 40.683C9.47749 40.8007 9.09986 41.4749 9.36623 42.0711C13.233 50.7268 21.9241 56.7742 32 56.7742C45.6598 56.7742 56.7742 45.6598 56.7742 32.0001C56.7742 18.3403 45.6598 7.22583 32 7.22583ZM7.82501 37.4284C7.94258 37.9523 8.45859 38.2775 8.98668 38.1807C9.57955 38.0721 9.95031 37.4796 9.82061 36.891C9.75648 36.6 9.69795 36.3068 9.64514 36.0117C9.5412 35.431 8.99257 35.0286 8.41225 35.1349C7.87147 35.2339 7.5015 35.7407 7.59626 36.2822C7.66366 36.6674 7.73998 37.0495 7.82501 37.4284ZM26.8387 38.1849C26.2686 38.1849 25.8065 37.7228 25.8065 37.1527V37.0659C25.8065 36.4958 26.2686 36.0337 26.8387 36.0337C27.4088 36.0337 27.871 36.4958 27.871 37.0659V37.1527C27.871 37.7228 27.4088 38.1849 26.8387 38.1849ZM26.8387 40.3362C26.2686 40.3362 25.8065 40.7983 25.8065 41.3685V43.5015C24.0298 43.9627 22.7097 45.5651 22.7097 47.4839C22.7097 49.7611 24.5615 51.6129 26.8387 51.6129C29.116 51.6129 30.9678 49.7611 30.9678 47.4839C30.9678 45.5651 29.6477 43.9627 27.871 43.5015V41.3685C27.871 40.7984 27.4088 40.3362 26.8387 40.3362ZM37.1613 29.311C37.7314 29.311 38.1936 28.8488 38.1936 28.2787V28.192C38.1936 27.6219 37.7314 27.1597 37.1613 27.1597C36.5912 27.1597 36.1291 27.6219 36.1291 28.192V28.2787C36.1291 28.8488 36.5912 29.311 37.1613 29.311ZM38.1936 20.4985V23.9762C38.1936 24.5463 37.7314 25.0085 37.1613 25.0085C36.5912 25.0085 36.1291 24.5463 36.1291 23.9762V20.4985C34.3523 20.0373 33.0323 18.434 33.0323 16.5161C33.0323 14.239 34.8841 12.3871 37.1613 12.3871C39.4385 12.3871 41.2904 14.239 41.2904 16.5161C41.2904 18.434 39.9703 20.0373 38.1936 20.4985ZM42.3226 42.3226C42.3226 41.184 43.2485 40.2581 44.3871 40.2581C45.5257 40.2581 46.4516 41.184 46.4516 42.3226C46.4516 43.4612 45.5257 44.3871 44.3871 44.3871C43.2485 44.3871 42.3226 43.4612 42.3226 42.3226ZM37.1613 18.5807C36.0227 18.5807 35.0968 17.6547 35.0968 16.5161C35.0968 15.3776 36.0227 14.4516 37.1613 14.4516C38.2999 14.4516 39.2258 15.3776 39.2258 16.5161C39.2258 17.6547 38.2999 18.5807 37.1613 18.5807ZM42.3226 32.0001C42.3226 30.8614 43.2485 29.9355 44.3871 29.9355C45.5257 29.9355 46.4516 30.8614 46.4516 32.0001C46.4516 33.1386 45.5257 34.0645 44.3871 34.0645C43.2485 34.0645 42.3226 33.1386 42.3226 32.0001ZM21.6774 21.6774C21.6774 22.816 20.7515 23.742 19.6129 23.742C18.4743 23.742 17.5484 22.816 17.5484 21.6774C17.5484 20.5389 18.4743 19.6129 19.6129 19.6129C20.7515 19.6129 21.6774 20.5389 21.6774 21.6774ZM26.8387 45.4194C27.9773 45.4194 28.9033 46.3453 28.9033 47.4839C28.9033 48.6225 27.9773 49.5484 26.8387 49.5484C25.7001 49.5484 24.7742 48.6225 24.7742 47.4839C24.7742 46.3453 25.7001 45.4194 26.8387 45.4194ZM21.6774 32.0001C21.6774 33.1386 20.7515 34.0645 19.6129 34.0645C18.4743 34.0645 17.5484 33.1386 17.5484 32.0001C17.5484 30.8614 18.4743 29.9355 19.6129 29.9355C20.7515 29.9355 21.6774 30.8614 21.6774 32.0001Z" fill="#1935D8"/>
</svg>
