<svg width="64" height="64" viewBox="0 0 64 64" fill="none" xmlns="http://www.w3.org/2000/svg">
    <path d="M15.4839 27.8709C15.4839 27.3008 15.946 26.8386 16.5161 26.8386H47.4839C48.054 26.8386 48.5161 27.3008 48.5161 27.8709C48.5161 28.441 48.054 28.9031 47.4839 28.9031H16.5161C15.946 28.9031 15.4839 28.441 15.4839 27.8709Z" fill="#1935D8"/>
    <path d="M35.0967 31.9999C35.0967 31.4298 35.5588 30.9677 36.1289 30.9677H47.4838C48.0539 30.9677 48.516 31.4298 48.516 31.9999C48.516 32.57 48.0539 33.0322 47.4838 33.0322H36.1289C35.5588 33.0322 35.0967 32.57 35.0967 31.9999Z" fill="#1935D8"/>
    <path d="M15.4839 31.9999C15.4839 31.4298 15.946 30.9677 16.5161 30.9677H27.871C28.4411 30.9677 28.9032 31.4298 28.9032 31.9999C28.9032 32.57 28.4411 33.0322 27.871 33.0322H16.5161C15.946 33.0322 15.4839 32.57 15.4839 31.9999Z" fill="#1935D8"/>
    <path d="M35.0967 23.7419C35.0967 23.1718 35.5588 22.7096 36.1289 22.7096H47.4838C48.0539 22.7096 48.516 23.1718 48.516 23.7419C48.516 24.312 48.0539 24.7741 47.4838 24.7741H36.1289C35.5588 24.7741 35.0967 24.312 35.0967 23.7419Z" fill="#1935D8"/>
    <path d="M15.4839 23.7419C15.4839 23.1718 15.946 22.7096 16.5161 22.7096H27.871C28.4411 22.7096 28.9032 23.1718 28.9032 23.7419C28.9032 24.312 28.4411 24.7741 27.871 24.7741H16.5161C15.946 24.7741 15.4839 24.312 15.4839 23.7419Z" fill="#1935D8"/>
    <path d="M15.4839 19.6128C15.4839 19.0427 15.946 18.5806 16.5161 18.5806H47.4839C48.054 18.5806 48.5161 19.0427 48.5161 19.6128C48.5161 20.1829 48.054 20.6451 47.4839 20.6451H16.5161C15.946 20.6451 15.4839 20.1829 15.4839 19.6128Z" fill="#1935D8"/>
    <path d="M54.7097 23.9182V18.5805C54.7097 15.1647 51.9319 12.387 48.5161 12.387V14.4515C50.7933 14.4515 52.6451 16.3033 52.6451 18.5805V23.9182C52.6451 25.7484 53.249 27.4868 54.3639 28.9031C53.249 30.3194 52.6451 32.0578 52.6451 33.888V39.2257C52.6451 41.5029 50.7933 43.3547 48.5161 43.3547V45.4192C51.9319 45.4192 54.7097 42.6415 54.7097 39.2257V33.888C54.7097 32.2806 55.3352 30.7695 56.4718 29.6329C56.8748 29.2299 56.8748 28.5763 56.4718 28.1733C55.3352 27.0367 54.7097 25.5266 54.7097 23.9182Z" fill="#1935D8"/>
    <path d="M11.3548 39.2257V33.888C11.3548 32.0578 10.7509 30.3194 9.636 28.9031C10.7509 27.4868 11.3548 25.7484 11.3548 23.9182V18.5805C11.3548 16.3033 13.2066 14.4515 15.4838 14.4515V12.387C12.068 12.387 9.29024 15.1647 9.29024 18.5805V23.9182C9.29024 25.5256 8.66473 27.0367 7.52814 28.1733C7.12506 28.5763 7.12506 29.2299 7.52814 29.6329C8.66473 30.7695 9.29024 32.2796 9.29024 33.888V39.2257C9.29024 42.6415 12.068 45.4192 15.4838 45.4192V43.3547C13.2066 43.3547 11.3548 41.5029 11.3548 39.2257Z" fill="#1935D8"/>
    <path d="M31.9999 45.4192C29.7227 45.4192 27.8708 47.271 27.8708 49.5482C27.8708 51.8254 29.7227 53.6773 31.9999 53.6773C34.2771 53.6773 36.1289 51.8254 36.1289 49.5482C36.1289 47.271 34.2771 45.4192 31.9999 45.4192ZM31.9999 51.6127C30.8613 51.6127 29.9354 50.6868 29.9354 49.5482C29.9354 48.4096 30.8613 47.4837 31.9999 47.4837C33.1385 47.4837 34.0644 48.4096 34.0644 49.5482C34.0644 50.6868 33.1385 51.6127 31.9999 51.6127Z" fill="#1935D8"/>
    <path d="M32.0001 41.2902C30.9755 41.2902 29.9574 41.4822 29.0076 41.8501C28.4755 42.0563 28.2905 42.6899 28.5623 43.1916C28.8339 43.6929 29.4591 43.8703 29.9988 43.6865C30.64 43.4682 31.3175 43.3547 32.0001 43.3547C35.4159 43.3547 38.1936 46.1324 38.1936 49.5482C38.1936 50.2308 38.0801 50.9083 37.8618 51.5495C37.678 52.0892 37.8554 52.7144 38.3567 52.986C38.8584 53.2578 39.492 53.0728 39.6981 52.5407C40.0661 51.5909 40.2581 50.5728 40.2581 49.5482C40.2581 44.9948 36.5535 41.2902 32.0001 41.2902Z" fill="#1935D8"/>
    <path d="M32 55.7418C28.5842 55.7418 25.8065 52.9641 25.8065 49.5483C25.8065 48.8657 25.92 48.1882 26.1383 47.547C26.3221 47.0073 26.1447 46.3821 25.6434 46.1106C25.1417 45.8388 24.5081 46.0238 24.3019 46.5558C23.9339 47.5056 23.7419 48.5237 23.7419 49.5483C23.7419 54.1017 27.4466 57.8064 32 57.8064C33.0246 57.8064 34.0427 57.6144 34.9925 57.2464C35.5245 57.0402 35.7095 56.4066 35.4377 55.9049C35.1661 55.4036 34.541 55.2262 34.0013 55.41C33.3601 55.6283 32.6826 55.7418 32 55.7418Z" fill="#1935D8"/>
    <path d="M4.12891 5.16116C4.12891 4.59106 4.59106 4.12891 5.16116 4.12891C5.73126 4.12891 6.19342 4.59106 6.19342 5.16116C6.19342 5.73126 5.73126 6.19342 5.16116 6.19342C4.59106 6.19342 4.12891 5.73126 4.12891 5.16116Z" fill="#1935D8"/>
    <path d="M8.25806 5.16116C8.25806 4.59106 8.72021 4.12891 9.29031 4.12891C9.86041 4.12891 10.3226 4.59106 10.3226 5.16116C10.3226 5.73126 9.86041 6.19342 9.29031 6.19342C8.72021 6.19342 8.25806 5.73126 8.25806 5.16116Z" fill="#1935D8"/>
    <path d="M12.3872 5.16116C12.3872 4.59106 12.8494 4.12891 13.4195 4.12891C13.9896 4.12891 14.4517 4.59106 14.4517 5.16116C14.4517 5.73126 13.9896 6.19342 13.4195 6.19342C12.8494 6.19342 12.3872 5.73126 12.3872 5.16116Z" fill="#1935D8"/>
    <path fill-rule="evenodd" clip-rule="evenodd" d="M60.9032 0C62.6104 0 64 1.38965 64 3.09668V50.5807H46.4516V52.4188L43.8659 53.0675C43.621 53.8951 43.2898 54.6941 42.876 55.4541L44.248 57.7394L40.189 61.7983L37.9037 60.4264C37.1437 60.8392 36.3447 61.1704 35.5172 61.4164L34.8705 64H29.1295L28.4808 61.4143C27.6532 61.1693 26.8543 60.8383 26.0942 60.4244L23.809 61.7964L19.75 57.7374L21.1219 55.4521C20.7092 54.692 20.3781 53.8932 20.1321 53.0656L17.5484 52.4188V50.5807H0V3.09668C0 1.38965 1.38965 0 3.0968 0H60.9032ZM60.9032 2.06445H3.0968C2.5282 2.06445 2.06458 2.52832 2.06458 3.09668V8.25806H4.96777C5.53786 8.25806 6 8.7202 6 9.29028C6 9.86037 5.53786 10.3225 4.96777 10.3225H2.06458V48.5161H17.5484V46.678L20.1341 46.0292C20.379 45.2017 20.7102 44.4027 21.124 43.6426L19.752 41.3573L23.811 37.2983L26.0963 38.6704C26.8563 38.2576 27.6552 37.9264 28.4828 37.6804L29.1295 35.0968H34.8705L35.5192 37.6825C36.3468 37.9274 37.1457 38.2585 37.9058 38.6724L40.191 37.3004L44.25 41.3594L42.8781 43.6447C43.2908 44.4048 43.6219 45.2036 43.8679 46.0312L46.4516 46.678V48.5161H61.9355V10.3225H11.0322C10.4621 10.3225 10 9.86037 10 9.29028C10 8.7202 10.4621 8.25806 11.0322 8.25806H61.9355V3.09668C61.9355 2.52832 61.4718 2.06445 60.9032 2.06445ZM42.1719 51.3608L44.3871 50.807V48.2898L42.1708 47.7349L42.0242 47.1265C41.7732 46.0842 41.3604 45.0902 40.7989 44.1724L40.4718 43.6385L41.6487 41.6785L39.869 39.8987L37.9088 41.0756L37.375 40.7485C36.4572 40.187 35.4632 39.7737 34.4208 39.5232L33.8125 39.3765L33.2585 37.1613H30.7415L30.1865 39.3776L29.5781 39.5242C28.5358 39.7751 27.5418 40.188 26.624 40.7495L26.0902 41.0767L24.1301 39.8997L22.3503 41.6794L23.5272 43.6396L23.2001 44.1733C22.6386 45.0912 22.2253 46.0852 21.9748 47.1276L21.8281 47.7358L19.6129 48.2898V50.807L21.8291 51.3619L21.9758 51.9702C22.2268 53.0126 22.6396 54.0066 23.2011 54.9244L23.5282 55.4581L22.3513 57.4183L24.131 59.1981L26.0912 58.0211L26.625 58.3483C27.5428 58.9098 28.5368 59.3231 29.5791 59.5736L30.1875 59.7202L30.7415 61.9354H33.2585L33.8135 59.7192L34.4219 59.5726C35.4642 59.3215 36.4582 58.9088 37.376 58.3473L37.9098 58.0201L39.8699 59.197L41.6497 57.4174L40.4728 55.4572L40.7999 54.9233C41.3614 54.0055 41.7747 53.0116 42.0252 51.9692L42.1719 51.3608Z" fill="#1935D8"/>
</svg>
