<svg width="67" height="64" viewBox="0 0 67 64" fill="none" xmlns="http://www.w3.org/2000/svg">
    <path d="M57.6041 8.34778H56.3973C56.2085 8.34778 56.0197 8.35952 55.8324 8.383C53.345 8.695 51.5812 10.9659 51.8929 13.4552L52.4962 18.2817C52.7825 20.5537 54.7123 22.2585 57.0006 22.2609C59.289 22.2585 61.2187 20.5539 61.5051 18.2817L62.1084 13.4552C62.1319 13.2676 62.1437 13.0789 62.1436 12.8899C62.1435 10.3811 60.111 8.34752 57.6041 8.34778ZM59.3488 13.1102L58.7468 17.9367C58.646 18.7343 58.0183 19.3623 57.2214 19.4632C56.2571 19.5852 55.3764 18.9018 55.2545 17.9367L54.6525 13.1102C54.6435 13.0383 54.6389 12.9659 54.6389 12.8934C54.638 11.9206 55.4253 11.1313 56.3973 11.1303H57.6041C57.6766 11.1305 57.7488 11.1349 57.8207 11.1439C58.7852 11.2646 59.4694 12.145 59.3488 13.1102Z" fill="#1935D8"/>
    <path d="M51.4415 20.2256C51.0568 19.5596 50.1923 19.3235 49.6168 19.8337C48.4971 20.8264 47.7155 22.1621 47.4079 23.6521H43.098C40.7946 23.6521 38.9272 25.5208 38.9272 27.826C38.9272 30.1312 40.7946 31.9999 43.098 31.9999H47.2688V37.5652H50.0494V30.6087C50.0494 29.8403 49.4269 29.2173 48.6591 29.2173H43.098C42.3302 29.2173 41.7077 28.5944 41.7077 27.826C41.7077 27.0576 42.3302 26.4346 43.098 26.4346H48.6591C49.4269 26.4346 50.0494 25.8117 50.0494 25.0433C50.0519 24.0229 50.4246 23.0557 51.0725 22.3067C51.5738 21.7272 51.8248 20.8892 51.4415 20.2256Z" fill="#1935D8"/>
    <path d="M42.7663 24.1362L35.3284 15.4518C34.829 14.8687 33.9518 14.8012 33.3691 15.301C32.7864 15.8009 32.7188 16.6787 33.2182 17.2618L40.6561 25.9463L42.7663 24.1362Z" fill="#1935D8"/>
    <path d="M36.1205 42.202C34.0727 39.9114 30.557 39.7159 28.2681 41.7653C25.9793 43.8147 25.7839 47.333 27.8317 49.6236L29.9032 47.7676C28.9597 46.7115 28.9597 45.1145 29.9032 44.0583C30.9267 42.9126 32.6845 42.8143 33.8293 43.8386C34.9742 44.8629 35.0725 46.6219 34.0489 47.7676L36.1204 49.6236C38.0094 47.5108 38.0094 44.3148 36.1205 42.202Z" fill="#1935D8"/>
    <path d="M31.976 47.3043C26.6013 47.3043 22.2441 51.6646 22.2441 57.0435V64H25.0248V57.0435C25.0248 53.2014 28.1369 50.0869 31.976 50.0869C35.8151 50.0869 38.9273 53.2014 38.9273 57.0434V63.9998H41.7079V57.0434C41.7079 51.6646 37.3509 47.3043 31.976 47.3043Z" fill="#1935D8"/>
    <path d="M37.5371 57.0435H34.7566V63.9999H37.5371V57.0435Z" fill="#1935D8"/>
    <path d="M19.4374 42.202C17.3896 39.9114 13.8739 39.7159 11.585 41.7653C9.29615 43.8147 9.10078 47.333 11.1486 49.6236L13.2201 47.7676C12.2766 46.7115 12.2766 45.1145 13.2201 44.0583C14.2436 42.9126 16.0013 42.8143 17.1462 43.8386C18.2911 44.8629 18.3894 46.6219 17.3658 47.7676L19.4373 49.6236C21.3263 47.5108 21.3263 44.3148 19.4374 42.202Z" fill="#1935D8"/>
    <path d="M15.2929 47.3043C9.9182 47.3043 5.56104 51.6646 5.56104 57.0435V64H8.34165V57.0435C8.34165 53.2014 11.4538 50.0869 15.2929 50.0869C19.132 50.0869 22.2442 53.2014 22.2442 57.0434V63.9998H25.0248V57.0434C25.0248 51.6646 20.6678 47.3043 15.2929 47.3043Z" fill="#1935D8"/>
    <path d="M12.5124 57.0435H9.73193V63.9999H12.5124V57.0435Z" fill="#1935D8"/>
    <path d="M52.8036 42.202C50.7558 39.9114 47.2401 39.7159 44.9512 41.7653C42.6624 43.8147 42.467 47.333 44.5148 49.6236L46.5863 47.7676C45.6428 46.7115 45.6428 45.1145 46.5863 44.0583C47.6098 42.9126 49.3676 42.8143 50.5124 43.8386C51.6573 44.8629 51.7556 46.6219 50.7321 47.7676L52.8035 49.6236C54.6925 47.5108 54.6925 44.3148 52.8036 42.202Z" fill="#1935D8"/>
    <path d="M64.3845 19.8341C63.8092 19.3236 62.9445 19.5598 62.5598 20.2258C62.1766 20.8893 62.4275 21.7271 62.9287 22.3066C63.5768 23.0556 63.9495 24.0228 63.952 25.0433V61.2171H58.391V57.0432C58.391 51.6645 54.034 47.3041 48.6591 47.3041C43.2844 47.3041 38.9272 51.6644 38.9272 57.0432V63.9997H41.7079V57.0432C41.7079 53.2014 44.82 50.0869 48.6591 50.0869C52.4982 50.0869 55.6104 53.2014 55.6104 57.0434V62.6086C55.6104 63.377 56.2329 64 57.0007 64H65.3423C66.1101 64 66.7326 63.377 66.7326 62.6086V25.0434C66.7281 23.03 65.8576 21.1413 64.3845 19.8341Z" fill="#1935D8"/>
    <path d="M45.8786 57.0435H43.0981V63.9999H45.8786V57.0435Z" fill="#1935D8"/>
    <path d="M60.1886 24.0598L57.0007 27.2501L53.8128 24.0598L51.8469 26.0272L56.0177 30.2011C56.2784 30.4621 56.632 30.6087 57.0006 30.6087C57.3693 30.6085 57.7228 30.4619 57.9835 30.2011L62.1542 26.0272L60.1886 24.0598Z" fill="#1935D8"/>
    <path d="M58.3911 27.826H55.6106V43.1303H58.3911V27.826Z" fill="#1935D8"/>
    <path d="M57.0007 2.78259H1.39031C0.62249 2.78259 0 3.40555 0 4.17394V36.1739C0 36.9423 0.62249 37.5652 1.39031 37.5652H44.4885V34.7827H2.78061V5.56529H55.6105V9.7392H58.391V4.17394C58.391 3.40555 57.7685 2.78259 57.0007 2.78259Z" fill="#1935D8"/>
    <path d="M2.78048 36.1738H0V43.1314C0 43.8992 0.622432 44.5216 1.39024 44.5216C2.15805 44.5216 2.78048 43.8992 2.78048 43.1314V36.1738Z" fill="#1935D8"/>
    <path d="M0 48.6956C0 49.4634 0.622432 50.0869 1.39024 50.0869C2.15805 50.0869 2.78048 49.4634 2.78048 48.6956C2.78048 47.9278 2.15805 47.3043 1.39024 47.3043C0.622432 47.3043 0 47.9278 0 48.6956Z" fill="#1935D8"/>
    <path d="M0 54.2608C0 55.0286 0.622432 55.6521 1.39024 55.6521C2.15805 55.6521 2.78048 55.0286 2.78048 54.2608C2.78048 53.493 2.15805 52.8695 1.39024 52.8695C0.622432 52.8695 0 53.493 0 54.2608Z" fill="#1935D8"/>
    <path d="M26.414 11.1303C27.1824 11.1303 27.8053 10.5074 27.8053 9.73906C27.8053 8.97068 27.1824 8.34778 26.414 8.34778H6.95134C6.18353 8.34778 5.56104 8.97073 5.56104 9.73913V15.3044C5.56104 16.0728 6.18353 16.6957 6.95134 16.6957H26.414C27.1824 16.6957 27.8053 16.0728 27.8053 15.3044C27.8053 14.5361 27.1824 13.9132 26.414 13.9132H8.34165V11.1303H26.414Z" fill="#1935D8"/>
    <path d="M15.2918 19.4781H6.95232C6.18393 19.4781 5.56104 20.101 5.56104 20.8694C5.56104 21.6378 6.18393 22.2607 6.95232 22.2607H15.2918C16.0602 22.2607 16.6831 21.6378 16.6831 20.8694C16.6831 20.101 16.0602 19.4781 15.2918 19.4781Z" fill="#1935D8"/>
    <path d="M19.4636 20.8694C19.4636 21.6372 20.0861 22.2607 20.8539 22.2607C21.6217 22.2607 22.2441 21.6372 22.2441 20.8694C22.2441 20.1016 21.6217 19.4781 20.8539 19.4781C20.0861 19.4781 19.4636 20.1016 19.4636 20.8694Z" fill="#1935D8"/>
    <path d="M25.0247 20.8694C25.0247 21.6372 25.6471 22.2607 26.4149 22.2607C27.1827 22.2607 27.8051 21.6372 27.8051 20.8694C27.8051 20.1016 27.1827 19.4781 26.4149 19.4781C25.6471 19.4781 25.0247 20.1016 25.0247 20.8694Z" fill="#1935D8"/>
    <path d="M5.56104 26.4347C5.56104 27.2025 6.18347 27.826 6.95128 27.826C7.71908 27.826 8.34152 27.2025 8.34152 26.4347C8.34152 25.6669 7.71908 25.0435 6.95128 25.0435C6.18347 25.0435 5.56104 25.6669 5.56104 26.4347Z" fill="#1935D8"/>
    <path d="M11.1221 26.4347C11.1221 27.2025 11.7445 27.826 12.5123 27.826C13.2801 27.826 13.9026 27.2025 13.9026 26.4347C13.9026 25.6669 13.2801 25.0435 12.5123 25.0435C11.7445 25.0435 11.1221 25.6669 11.1221 26.4347Z" fill="#1935D8"/>
    <path d="M26.4139 25.0435H18.0744C17.306 25.0435 16.6831 25.6664 16.6831 26.4347C16.6831 27.2031 17.306 27.826 18.0744 27.826H26.4139C27.1823 27.826 27.8052 27.2031 27.8052 26.4347C27.8052 25.6664 27.1823 25.0435 26.4139 25.0435Z" fill="#1935D8"/>
</svg>
