<svg width="594" height="532" viewBox="0 0 594 532" fill="none" xmlns="http://www.w3.org/2000/svg">
    <path d="M365.969 20.4571C354.329 20.4571 342.689 21.1837 331.533 22.6369C290.792 27.9652 249.808 23.1213 211.249 8.58931C198.154 3.74532 183.846 0.596735 168.81 0.112337C102.363 -2.55185 47.0708 42.4972 44.8882 100.625C43.6757 134.775 61.1363 165.777 89.0247 186.121C116.186 205.982 136.071 234.803 145.529 268.227C170.75 357.598 264.116 418.875 365.969 418.875C491.346 418.875 593.2 329.745 593.2 219.545C593.2 109.586 491.346 20.4571 365.969 20.4571Z" fill="#E1E1FF" fill-opacity="0.6"/>
    <path d="M80.1281 510.113C124.382 510.113 160.256 507.911 160.256 505.195C160.256 502.479 124.382 500.277 80.1281 500.277C35.8746 500.277 0 502.479 0 505.195C0 507.911 35.8746 510.113 80.1281 510.113Z" fill="#1676A6"/>
    <path d="M203.343 510.113C222.161 510.113 237.417 507.911 237.417 505.195C237.417 502.479 222.161 500.277 203.343 500.277C184.525 500.277 169.269 502.479 169.269 505.195C169.269 507.911 184.525 510.113 203.343 510.113Z" fill="#1676A6"/>
    <path d="M534.187 501.046C534.187 505.305 476.207 508.767 404.707 508.767C333.208 508.767 284.213 505.305 284.213 501.046C284.213 496.787 333.208 493.325 404.707 493.325C476.207 493.325 534.187 496.76 534.187 501.046Z" fill="#1676A6"/>
    <path d="M499.921 90.5933H160.613C147.183 90.5933 136.295 101.48 136.295 114.91V324.753C136.295 338.183 147.183 349.07 160.613 349.07H499.921C513.352 349.07 524.24 338.183 524.24 324.753V114.91C524.24 101.48 513.352 90.5933 499.921 90.5933Z" fill="#767FE3"/>
    <path d="M504.043 110.816H156.492V328.847H504.043V110.816Z" fill="#8F94FF"/>
    <path d="M504.043 308.019H156.492V328.847H504.043V308.019Z" fill="#C8E6EB"/>
    <path d="M504.043 110.816H156.492V121.148H504.043V110.816Z" fill="#767FE3"/>
    <path d="M520.421 375.146H140.087C136.662 375.146 133.271 374.472 130.108 373.161C126.944 371.851 124.069 369.93 121.647 367.509C119.226 365.087 117.305 362.213 115.995 359.049C114.684 355.885 114.01 352.495 114.01 349.07H546.498C546.498 352.495 545.824 355.885 544.513 359.049C543.203 362.213 541.282 365.087 538.86 367.509C536.439 369.93 533.564 371.851 530.4 373.161C527.236 374.472 523.845 375.146 520.421 375.146Z" fill="#767FE3"/>
    <path d="M520.42 366.106H140.086C134.751 366.101 129.546 364.46 125.172 361.404C120.799 358.348 117.469 354.024 115.63 349.015H114.009C114.002 352.444 114.671 355.841 115.978 359.011C117.286 362.181 119.205 365.062 121.628 367.489C124.05 369.916 126.927 371.842 130.094 373.156C133.262 374.47 136.657 375.146 140.086 375.146H520.393C523.817 375.146 527.208 374.472 530.372 373.161C533.536 371.851 536.411 369.93 538.832 367.509C541.254 365.087 543.175 362.213 544.485 359.049C545.796 355.885 546.47 352.495 546.47 349.07H544.849C543.003 354.064 539.673 358.373 535.306 361.418C530.939 364.464 525.744 366.1 520.42 366.106Z" fill="#6469D4"/>
    <path d="M534.187 343.959H126.375V349.07H534.187V343.959Z" fill="#6469D4"/>
    <path d="M354.833 357.863H305.701C303.384 357.863 301.161 356.942 299.523 355.303C297.884 353.665 296.963 351.442 296.963 349.125H363.572C363.572 351.442 362.651 353.665 361.012 355.303C359.374 356.942 357.151 357.863 354.833 357.863Z" fill="#6469D4"/>
    <path d="M216.56 335.744H168.857V343.987H216.56V335.744Z" fill="#4D4CAD"/>
    <path d="M492.667 335.744H444.964V343.987H492.667V335.744Z" fill="#4D4CAD"/>
    <path style="mix-blend-mode:lighten" opacity="0.51" d="M272.397 110.816L156.492 226.742V328.847H156.739L374.783 110.816H272.397Z" fill="url(#paint0_linear)"/>
    <path style="mix-blend-mode:lighten" opacity="0.51" d="M188.889 328.847H252.475L470.492 110.816H406.906L188.889 328.847Z" fill="url(#paint1_linear)"/>
    <g style="mix-blend-mode:lighten" opacity="0.51">
        <path d="M463.155 328.847L504.043 287.961V224.379L399.596 328.847H463.155Z" fill="#CDCDCD"/>
    </g>
    <path d="M319.401 76.5017C319.401 71.59 317.449 66.8795 313.976 63.4064C310.503 59.9333 305.792 57.9822 300.88 57.9822H203.248C198.336 57.9822 193.625 59.9333 190.152 63.4064C186.679 66.8795 184.727 71.59 184.727 76.5017V138.737C184.727 143.649 186.679 148.36 190.152 151.833C193.625 155.306 198.336 157.257 203.248 157.257H232.101C234.556 157.258 236.974 157.859 239.143 159.009C241.313 160.158 243.169 161.821 244.549 163.851L250.044 172.094C250.263 172.418 250.558 172.682 250.903 172.865C251.248 173.048 251.632 173.143 252.023 173.143C252.413 173.143 252.798 173.048 253.142 172.865C253.487 172.682 253.782 172.418 254.001 172.094L259.497 163.851C260.877 161.821 262.733 160.158 264.902 159.009C267.072 157.859 269.49 157.258 271.945 157.257H300.798C303.237 157.268 305.654 156.797 307.911 155.871C310.167 154.945 312.219 153.583 313.947 151.862C315.676 150.141 317.047 148.096 317.983 145.844C318.919 143.591 319.401 141.176 319.401 138.737V76.5017Z" fill="#1935D8"/>
    <path d="M552.271 53.9466C552.271 49.0349 550.319 44.3244 546.846 40.8513C543.373 37.3782 538.662 35.427 533.75 35.427H436.09C431.178 35.427 426.467 37.3782 422.994 40.8513C419.521 44.3244 417.57 49.0349 417.57 53.9466V116.182C417.57 121.094 419.521 125.804 422.994 129.277C426.467 132.751 431.178 134.702 436.09 134.702H464.943C467.398 134.703 469.816 135.304 471.986 136.454C474.155 137.603 476.011 139.266 477.391 141.296L482.887 149.539C483.106 149.862 483.401 150.127 483.746 150.31C484.09 150.492 484.475 150.588 484.865 150.588C485.255 150.588 485.64 150.492 485.985 150.31C486.33 150.127 486.624 149.862 486.844 149.539L492.339 141.296C493.719 139.266 495.575 137.603 497.745 136.454C499.914 135.304 502.332 134.703 504.787 134.702H533.64C538.552 134.702 543.263 132.751 546.736 129.277C550.209 125.804 552.161 121.094 552.161 116.182L552.271 53.9466Z" fill="#1935D8" stroke="#4D4CAD" stroke-miterlimit="10"/>
    <path fill-rule="evenodd" clip-rule="evenodd" d="M279.833 106.777V110.783L274.197 112.197C273.663 114.001 272.941 115.742 272.039 117.399L275.029 122.38L266.182 131.227L261.201 128.237C259.544 129.137 257.803 129.859 255.999 130.395L254.589 136.026H242.076L240.662 130.39C238.858 129.856 237.117 129.135 235.46 128.233L230.479 131.223L221.631 122.376L224.622 117.395C223.722 115.738 223 113.997 222.464 112.193L216.833 110.783V106.777V102.276V98.2699L222.469 96.8557C223.002 95.052 223.724 93.3105 224.626 91.6537L221.636 86.6725L230.483 77.8253L235.464 80.8159C237.121 79.9161 238.862 79.1942 240.666 78.6581L242.076 73.0266H254.589L256.003 78.6626C257.807 79.1963 259.549 79.9182 261.205 80.8202L266.186 77.8298L275.034 86.677L272.043 91.6582C272.943 93.315 273.665 95.0562 274.201 96.8602L279.833 98.2699V102.276V106.777ZM275.333 107.27L270.504 108.477L270.184 109.803C269.638 112.075 268.737 114.242 267.514 116.242L266.801 117.406L269.366 121.678L265.487 125.557L261.214 122.992L260.05 123.705C258.05 124.929 255.883 125.829 253.611 126.376L252.285 126.696L251.076 131.526H245.589L244.382 126.698L243.056 126.378C240.784 125.832 238.617 124.931 236.617 123.707L235.453 122.994L231.181 125.56L227.301 121.68L229.867 117.408L229.154 116.245C227.93 114.244 227.03 112.077 226.483 109.805L226.163 108.479L221.333 107.27V101.783L226.161 100.576L226.481 99.2498C227.027 96.9778 227.928 94.8112 229.151 92.8106L229.864 91.6473L227.299 87.3747L231.179 83.4953L235.451 86.0608L236.614 85.3477C238.615 84.1238 240.782 83.2239 243.054 82.6769L244.38 82.3573L245.589 77.5265H251.076L252.283 82.3549L253.609 82.6747C255.881 83.2207 258.048 84.1216 260.048 85.3456L261.212 86.0584L265.484 83.4932L269.364 87.3725L266.798 91.6449L267.511 92.8084C268.735 94.809 269.635 96.9757 270.182 99.2474L270.502 100.574L275.333 101.783V107.27ZM244.741 89.4142C246.811 88.612 249.03 88.1936 251.264 88.1936C261.189 88.1936 269.264 96.2685 269.264 106.194C269.264 108.427 268.845 110.646 268.043 112.716C267.594 113.876 266.213 114.279 265.119 113.687C264.026 113.095 263.64 111.732 264.04 110.556C264.516 109.158 264.764 107.681 264.764 106.194C264.764 98.7481 258.709 92.6935 251.264 92.6935C249.776 92.6935 248.299 92.941 246.901 93.4169C245.725 93.8174 244.362 93.4308 243.77 92.3381C243.178 91.2446 243.581 89.8635 244.741 89.4142ZM242.111 107.305C242.111 102.341 246.148 98.3046 251.111 98.3046C256.075 98.3046 260.111 102.341 260.111 107.305C260.111 112.268 256.075 116.305 251.111 116.305C246.148 116.305 242.111 112.268 242.111 107.305ZM246.611 107.305C246.611 109.786 248.629 111.805 251.111 111.805C253.593 111.805 255.611 109.786 255.611 107.305C255.611 104.823 253.593 102.805 251.111 102.805C248.629 102.805 246.611 104.823 246.611 107.305ZM249.999 120.957C242.554 120.957 236.499 114.902 236.499 107.457C236.499 105.969 236.746 104.492 237.222 103.095C237.623 101.918 237.236 100.556 236.144 99.9639C235.05 99.3714 233.669 99.7747 233.22 100.934C232.418 103.005 231.999 105.224 231.999 107.457C231.999 117.382 240.074 125.457 249.999 125.457C252.232 125.457 254.452 125.038 256.522 124.236C257.681 123.787 258.085 122.406 257.492 121.312C256.9 120.22 255.538 119.833 254.361 120.234C252.964 120.71 251.487 120.957 249.999 120.957Z" fill="white"/>
    <path d="M513.526 83.3475C513.795 82.2104 513.804 81.0272 513.551 79.8864C513.298 78.7455 512.791 77.6766 512.067 76.7595C511.343 75.8425 510.42 75.1011 509.369 74.5908C508.318 74.0805 507.165 73.8146 505.996 73.8129H497.753C497.287 73.8081 496.828 73.6925 496.416 73.4756C496.003 73.2588 495.648 72.947 495.379 72.5658C495.111 72.1847 494.937 71.7452 494.872 71.2837C494.807 70.8221 494.852 70.3517 495.005 69.9112L499.429 61.2009C499.793 60.4958 499.968 59.7089 499.939 58.9161C499.91 58.1233 499.677 57.3514 499.263 56.6748C498.849 55.9982 498.267 55.4398 497.574 55.0534C496.881 54.6671 496.1 54.4658 495.307 54.469C493.974 54.47 492.665 54.8303 491.519 55.5121C490.373 56.1938 489.432 57.1719 488.795 58.3433L480.963 72.3566C480.744 72.7638 480.419 73.1041 480.023 73.3412C479.626 73.5783 479.172 73.7033 478.71 73.703C477.697 73.703 476.725 74.1054 476.009 74.8217C475.293 75.5379 474.89 76.5094 474.89 77.5223V109.561C474.89 110.574 475.293 111.545 476.009 112.261C476.725 112.978 477.697 113.38 478.71 113.38H502.094C503.434 113.38 504.734 112.922 505.779 112.083C506.823 111.243 507.549 110.072 507.837 108.764L513.526 83.3475Z" fill="white"/>
    <path d="M32.5623 465.023L27.2315 482.719C26.9941 483.499 26.6422 484.24 26.1873 484.917L22.4227 490.412C21.8633 491.24 21.5061 492.187 21.3799 493.178C21.2538 494.168 21.3622 495.175 21.6964 496.116C22.0306 497.057 22.5813 497.907 23.3041 498.596C24.0269 499.285 24.9015 499.795 25.8575 500.084C25.8575 500.084 32.5349 502.832 40.3938 505.332C48.2527 507.833 58.5298 505.772 58.5298 503.656C58.5298 498.958 54.1332 502.694 46.7963 497.776C44.3233 496.127 42.702 494.396 40.4487 492.61C34.1286 487.637 39.6519 475.053 43.5264 467.881C43.8491 467.287 44.0287 466.626 44.051 465.951C44.0733 465.276 43.9376 464.605 43.6547 463.991C43.3719 463.377 42.9497 462.838 42.4217 462.416C41.8938 461.994 41.2746 461.702 40.6136 461.561L38.7725 461.177C37.4416 460.9 36.0551 461.144 34.8995 461.86C33.7438 462.576 32.9072 463.708 32.5623 465.023Z" fill="#FAB9AF"/>
    <path d="M157.013 313.268C157.81 309.806 158.25 306.234 158.717 304.887C159.137 304.084 159.614 303.313 160.146 302.579C161.177 301.319 161.893 299.83 162.234 298.238V292.303C162.234 289.555 163.608 287.247 166.494 287.247C169.599 287.247 171.028 289.995 170.643 292.99V297.139C170.566 299.611 171.006 302.073 171.934 304.365C173.007 309.393 172.597 314.624 170.753 319.423C169.873 322.17 163.114 321.703 157.81 321.236C154.238 320.934 150.034 319.807 150.803 318.214C151.985 315.713 164.982 318.956 162.811 311.29C162.811 310.905 162.372 309.971 161.877 309.943C160.448 309.943 160.173 313.076 159.514 314.614C158.552 316.785 157.041 317.664 156.107 317.362C155.172 317.06 156.436 315.768 157.013 313.268Z" fill="#FAB9AF"/>
    <path d="M135.14 123.043C135.14 123.043 181.305 185.114 181.305 219.845C181.305 243.613 171.357 295.297 171.357 295.297C169.785 295.556 168.197 295.703 166.604 295.737C165.003 295.691 163.411 295.489 161.85 295.132C161.85 295.132 162.152 229.187 158.195 217.262C154.238 205.337 115.658 149.311 114.916 136.919C114.174 124.527 127.336 113.014 135.14 123.043Z" fill="#B0B0FF"/>
    <path d="M277.123 196.682C280.358 197.094 283.297 198.771 285.295 201.347C287.294 203.923 288.19 207.186 287.785 210.421L274.046 318.653C273.634 321.887 271.957 324.826 269.381 326.825C266.805 328.823 263.542 329.719 260.306 329.314L75.5116 306.014C72.2773 305.602 69.3383 303.925 67.3395 301.349C65.3407 298.773 64.4453 295.51 64.8498 292.275L78.5892 184.043C78.994 180.804 80.6689 177.858 83.2454 175.854C85.822 173.849 89.0892 172.95 92.3286 173.354L277.123 196.682Z" fill="#1935D8"/>
    <path d="M271.683 205.938L95.2387 183.68C93.3717 183.445 91.6672 184.767 91.4317 186.634L78.0152 292.98C77.7797 294.846 79.1023 296.551 80.9693 296.786L257.414 319.044C259.281 319.279 260.985 317.957 261.221 316.09L274.637 209.745C274.873 207.878 273.55 206.173 271.683 205.938Z" fill="#F5F5F5"/>
    <path d="M273.991 214.845L274.705 209.13C274.755 208.768 274.733 208.401 274.639 208.048C274.546 207.696 274.383 207.365 274.161 207.076C273.938 206.787 273.66 206.545 273.343 206.365C273.026 206.184 272.677 206.069 272.315 206.025L94.6093 183.603C94.248 183.553 93.8804 183.576 93.5278 183.669C93.1752 183.763 92.8448 183.925 92.5557 184.148C92.2667 184.37 92.0249 184.648 91.8444 184.965C91.6638 185.282 91.5482 185.632 91.5042 185.994L90.7898 191.709L273.991 214.845Z" fill="#C8E6EB"/>
    <path d="M179.024 205.585C188.004 206.717 196.446 210.487 203.283 216.418C210.12 222.349 215.044 230.174 217.432 238.903C219.82 247.633 219.565 256.875 216.7 265.459C213.834 274.044 208.487 281.586 201.334 287.131C194.181 292.677 185.543 295.976 176.515 296.611C167.487 297.247 158.472 295.191 150.613 290.703C142.753 286.215 136.401 279.497 132.361 271.398C128.32 263.3 126.773 254.185 127.914 245.207C129.443 233.178 135.685 222.248 145.268 214.819C154.852 207.389 166.993 204.068 179.024 205.585Z" fill="#FF5AD2"/>
    <path d="M152.48 269.936L157.975 227.292C158.103 226.266 158.508 225.294 159.146 224.481C159.785 223.668 160.633 223.044 161.599 222.677C162.565 222.309 163.613 222.212 164.631 222.396C165.648 222.58 166.596 223.037 167.373 223.719L196.418 249.053C197.122 249.666 197.664 250.443 197.996 251.315C198.329 252.187 198.441 253.127 198.325 254.053C198.208 254.979 197.865 255.862 197.327 256.624C196.788 257.386 196.07 258.004 195.237 258.423L160.806 275.734C159.88 276.231 158.835 276.462 157.786 276.402C156.737 276.341 155.725 275.992 154.862 275.391C154 274.791 153.321 273.963 152.9 273C152.48 272.037 152.334 270.977 152.48 269.936Z" fill="white"/>
    <path d="M105.078 471.453V486.153C105.089 489.144 104.682 492.122 103.869 495.001L102.578 499.535C102.339 500.391 102.299 501.291 102.461 502.165C102.623 503.039 102.983 503.864 103.514 504.578C104.044 505.291 104.731 505.874 105.521 506.281C106.312 506.688 107.185 506.909 108.074 506.926C118.103 506.926 135.223 506.926 139.619 506.926C139.972 506.944 140.319 506.83 140.594 506.607C140.868 506.383 141.049 506.066 141.103 505.717C141.488 501.431 129.067 498.546 119.725 494.919C112.608 492.171 112.992 479.367 113.872 471.92C113.947 471.257 113.875 470.585 113.659 469.954C113.444 469.322 113.09 468.746 112.625 468.267C112.159 467.789 111.594 467.42 110.968 467.187C110.342 466.953 109.673 466.862 109.008 466.919C107.911 467.061 106.904 467.601 106.179 468.437C105.454 469.273 105.063 470.347 105.078 471.453Z" fill="#FAB9AF"/>
    <path d="M461.536 73.7581H454.446C451.866 73.7581 449.775 75.8494 449.775 78.4292V108.736C449.775 111.316 451.866 113.407 454.446 113.407H461.536C464.116 113.407 466.207 111.316 466.207 108.736V78.4292C466.207 75.8494 464.116 73.7581 461.536 73.7581Z" fill="white"/>
    <path d="M145.94 257.379L126.293 119.334L73.286 112.053L45.6973 256.39L145.94 257.379Z" fill="#FAB9AF"/>
    <path d="M86.8879 258.726L145.583 253.807C145.583 253.807 151.491 296.561 136.652 373.964C129.727 410.234 115.356 479.586 115.356 479.586C111.917 481.174 108.04 481.542 104.364 480.63C104.364 480.63 103.265 450.048 102.578 417.103C101.919 385.505 101.754 351.735 99.8304 340.69C95.5163 318.131 86.8879 258.726 86.8879 258.726Z" fill="#324093"/>
    <path d="M124.341 262.874C119.599 264.344 115.517 267.418 112.794 271.57C110.072 275.721 108.879 280.69 109.42 285.625C111.976 309.31 113.625 342.118 103.925 356.763C100.71 361.599 101.671 351.735 99.6654 340.689C95.5436 318.131 86.9153 258.725 86.9153 258.725L124.341 262.874Z" fill="#3B3B8F"/>
    <path d="M99.006 259.468C105.079 292.028 118.626 340.69 92.521 386.412C66.4162 432.134 39.0198 479.669 39.0198 479.669C35.4838 479.725 32.0438 478.517 29.3198 476.262C29.3198 476.262 33.9088 455.544 40.5037 431.337C48.0604 403.667 58.9265 386.412 63.8924 356.561C68.8582 326.711 68.1756 287.734 69.9617 267.126C71.7478 246.518 95.8185 242.459 99.006 259.468Z" fill="#324093"/>
    <path d="M145.143 259.357C146.129 258.856 146.928 258.052 147.423 257.063C147.917 256.073 148.081 254.951 147.891 253.862L126.347 119.307L73.2858 112.053L44.7903 254.109C44.6626 254.743 44.6617 255.395 44.7877 256.029C44.9136 256.663 45.164 257.266 45.5243 257.802C45.8845 258.339 46.3476 258.799 46.8866 259.155C47.4257 259.512 48.0301 259.758 48.6648 259.879C68.6031 263.605 88.8351 265.536 109.118 265.65C128.875 265.677 140.087 261.693 145.143 259.357Z" fill="white"/>
    <path d="M89.7182 119.527C89.7182 129.226 91.6142 137.03 92.4661 146.674C94.4445 166.485 94.5545 192.781 95.2139 223.006C96.3955 275.212 93.0706 289.17 79.2213 299.145C65.372 309.119 38.8 292.495 38.0031 286.945C37.2062 281.394 43.1691 213.306 49.9014 183.823C56.6337 154.34 75.4842 111.916 75.4842 111.916L83.4805 112.768C85.1493 112.944 86.6936 113.733 87.8151 114.981C88.9366 116.229 89.5559 117.849 89.5533 119.527H89.7182Z" fill="#B0B0FF"/>
    <path d="M63.833 182.009C70.373 171.595 85.1291 137.661 85.1291 128.072L74.9345 112.135C74.9345 112.135 56.8259 155.219 50.2036 184.702C43.5812 214.185 56.771 193.522 63.833 182.009Z" fill="#9797EF"/>
    <path d="M111.921 117.356C116.37 134.242 118.859 151.585 119.34 169.04C120.137 199.265 122.913 267.243 133.245 294.363C136.515 302.964 160.256 280.103 160.256 273.288C160.256 266.474 153.991 243.586 148.056 222.813C143.247 206.024 136.789 149.559 134.591 128.402C134.069 123.648 133.355 119.856 128.601 119.224L111.921 117.356Z" fill="#B0B0FF"/>
    <path d="M82.0514 63.8577C81.3092 63.6959 80.5378 63.7292 79.8122 63.9543C79.0867 64.1794 78.4319 64.5886 77.9116 65.1421C77.3913 65.6955 77.0233 66.3744 76.8435 67.1124C76.6636 67.8504 76.6781 68.6224 76.8854 69.3531C77.5292 71.8121 77.5292 74.3954 76.8854 76.8544C75.2092 83.0642 82.5186 84.8502 85.1291 87.3506C87.7395 89.851 88.2891 95.1541 92.7682 95.5937C97.2472 96.0334 107.607 92.0767 107.552 87.6803C107.552 84.1907 93.0979 66.6054 82.0514 63.8577Z" fill="#3B3B8F"/>
    <path d="M104.501 55.7527C92.6581 55.7527 88.2615 64.1882 88.0142 79.7677C88.2277 85.1824 89.8266 90.4519 92.6581 95.0724C93.4397 96.4229 93.94 97.9175 94.1289 99.4663C94.3177 101.015 94.1913 102.586 93.7572 104.085L91.1467 112.878C89.3881 121.121 93.2626 125.517 98.9782 127.138C100.45 127.515 101.984 127.582 103.483 127.337C104.983 127.091 106.415 126.537 107.689 125.709C110.629 123.813 110.877 119.719 110.437 116.257L109.777 113.757C109.546 112.952 109.478 112.109 109.58 111.278C109.681 110.446 109.948 109.644 110.366 108.918C110.784 108.193 111.344 107.558 112.013 107.054C112.681 106.549 113.444 106.184 114.256 105.981C123.379 103.975 124.671 94.4954 127.116 79.7402C129.562 64.3805 116.345 55.7527 104.501 55.7527Z" fill="#FAB9AF"/>
    <path d="M129.095 58.0605C128.917 56.0963 128.087 54.2481 126.738 52.8093C125.389 51.3706 123.597 50.4239 121.648 50.1196C120.052 49.9833 118.465 49.7539 116.895 49.4327L104.062 47.0972C95.8184 47.0972 82.2988 51.7408 84.0025 63.5834L85.4589 71.6067C85.7612 73.2748 86.5877 74.803 87.8182 75.9692C89.0487 77.1354 90.6191 77.8788 92.3011 78.0913C92.5299 77.9871 92.7789 77.9348 93.0302 77.9382C93.2816 77.9416 93.5291 78.0005 93.755 78.1109C93.9809 78.2212 94.1795 78.3801 94.3367 78.5762C94.494 78.7724 94.6058 79.0009 94.6643 79.2453L95.736 83.834C97.1923 83.834 97.5221 78.8607 97.5221 77.4044C97.5306 75.5715 98.1644 73.7965 99.3185 72.3726C100.473 70.9487 102.078 69.9612 103.87 69.5734C108.376 68.5568 109.365 65.0397 114.449 66.3861L118.241 67.6775C122.583 68.8315 128.024 65.6717 128.024 61.1929C128.051 60.4785 129.095 58.9398 129.095 58.0605Z" fill="#3B3B8F"/>
    <path d="M94.5543 80.0422C94.5543 83.6417 93.2078 86.5818 89.718 86.5818C86.2282 86.5818 84.0024 81.6084 84.0024 78.0089C84.0024 74.4094 86.2282 73.5027 89.718 73.5027C93.2078 73.5027 94.5543 76.4427 94.5543 80.0422Z" fill="#FAB9AF"/>
    <path d="M123.6 90.8406C123.673 91.2405 123.656 91.6517 123.551 92.0445C123.447 92.4373 123.256 92.8019 122.993 93.1121C122.73 93.4222 122.402 93.6702 122.031 93.8381C121.661 94.006 121.258 94.0896 120.852 94.0829C120.155 94.0847 119.484 93.8217 118.974 93.3473C118.463 92.8729 118.153 92.2225 118.104 91.5276V80.0696C118.104 79.6397 118.275 79.2273 118.579 78.9233C118.883 78.6193 119.295 78.4485 119.725 78.4485C120.02 78.448 120.307 78.5486 120.537 78.7336C120.767 78.9186 120.926 79.1768 120.989 79.4651L123.6 90.8406Z" fill="#FA968C"/>
    <path d="M119.89 65.9188C124.479 67.1553 127.09 74.7665 127.254 77.7889C127.706 77.7889 128.14 77.6095 128.459 77.29C128.779 76.9705 128.958 76.5372 128.958 76.0854V71.1395C128.958 70.2877 126.375 64.6824 125.523 64.6824L119.89 65.9188Z" fill="#3B3B8F"/>
    <path d="M43.0592 305.959C42.2348 302.496 41.8226 298.924 41.3555 297.578C40.936 296.775 40.4585 296.003 39.9266 295.27C38.8954 294.009 38.1795 292.521 37.8382 290.929V284.994C37.8382 282.246 36.4643 279.938 33.579 279.938C30.4739 279.938 29.045 282.685 29.4297 285.68V289.83C29.5067 292.302 29.0668 294.763 28.1382 297.056C27.0655 302.084 27.476 307.315 29.3198 312.113C30.1991 314.861 33.7988 316.647 38.7175 318.708C41.1357 319.697 45.175 320.549 43.6087 317.636C42.3172 315.218 35.0903 311.646 37.2612 303.898C37.2612 303.513 37.7008 302.579 38.1954 302.551C39.6243 302.551 39.8991 305.684 40.5586 307.223C41.5204 309.393 43.0317 310.272 43.966 309.97C44.9003 309.668 43.6362 308.404 43.0592 305.959Z" fill="#FAB9AF"/>
    <path d="M64.9322 115.707C64.9322 115.707 18.7404 177.778 18.8503 212.536C18.8503 236.304 28.7976 287.988 28.7976 287.988C30.3698 288.248 31.9584 288.395 33.5514 288.428C35.152 288.383 36.7443 288.18 38.3053 287.824C38.3053 287.824 38.003 221.879 41.9599 209.953C45.9169 198.028 83.1781 141.865 85.1291 129.611C87.2175 116.614 76.3359 105.925 64.9322 115.707Z" fill="#B0B0FF"/>
    <path d="M507.148 466.068C491.073 452.329 419.381 423.753 419.381 423.753C413.885 421.5 383.851 421.307 378.877 423.533C378.877 423.533 304.685 453.016 289.764 466.15C286.192 469.31 283.334 476.399 285.257 481.043C289.709 491.814 353.405 489.286 384.373 480.218C393.483 477.52 403.187 477.578 412.264 480.383C444.359 490.385 511.325 494.974 516.189 484.12C518.222 479.476 517.59 474.998 507.148 466.068Z" fill="#1935D8"/>
    <path d="M344.419 478.35C350.189 479.367 354.036 474.998 358.158 474.036C360.169 473.585 362.258 473.622 364.251 474.143C366.245 474.664 368.084 475.654 369.617 477.031C378.548 484.807 386.956 483.9 396.271 484.093L443.315 475.575C443.315 475.575 483.599 459.721 496.789 462.468C511.435 465.546 517.81 473.459 517.81 481.153C517.81 488.297 492.282 501.239 462.33 500.991C432.268 500.511 402.297 497.552 372.722 492.144C372.722 492.144 324.442 479.861 323.975 477.663C323.508 475.465 338.648 477.333 344.419 478.35Z" fill="#FA968C"/>
    <path d="M394.65 309.778C394.898 309.822 395.123 309.949 395.288 310.14C395.453 310.33 395.548 310.571 395.557 310.822C395.656 313.403 396.75 315.845 398.609 317.637C400.468 319.43 402.949 320.434 405.532 320.439C406.36 320.458 407.167 320.7 407.869 321.14C408.57 321.58 409.139 322.202 409.516 322.939C410.176 324.153 411.119 325.19 412.264 325.962C413.558 326.83 415.061 327.336 416.617 327.428C418.173 327.52 419.725 327.194 421.112 326.484C422.172 325.94 423.108 325.182 423.86 324.258C424.545 323.387 425.423 322.686 426.424 322.209C427.425 321.732 428.522 321.493 429.631 321.511C430.877 321.581 432.124 321.384 433.288 320.933C434.452 320.481 435.505 319.785 436.377 318.892C437.25 317.999 437.92 316.93 438.344 315.756C438.769 314.582 438.936 313.33 438.836 312.086C438.902 310.106 438.281 308.164 437.077 306.591C436.57 306.002 436.189 305.315 435.957 304.573C435.726 303.831 435.649 303.05 435.731 302.277C435.962 300.659 435.629 299.012 434.788 297.611C433.947 296.21 432.65 295.141 431.114 294.583C429.978 294.138 429.046 293.289 428.499 292.198C427.951 291.107 427.825 289.853 428.147 288.676C428.416 287.644 428.627 286.598 428.779 285.543C430.153 276.091 420.92 266.914 420.92 266.914C419.706 267.493 418.333 267.651 417.019 267.362C415.705 267.074 414.525 266.355 413.665 265.32L410.148 261.061C409.973 260.886 409.74 260.781 409.493 260.766C409.246 260.75 409.002 260.826 408.807 260.977C408.611 261.129 408.478 261.347 408.431 261.59C408.385 261.833 408.429 262.085 408.554 262.298L410.753 265.21C411.875 266.761 412.479 268.626 412.479 270.541C412.479 272.455 411.875 274.32 410.753 275.871C409.335 277.866 408.395 280.16 408.005 282.576C407.676 284.833 407.63 287.122 407.867 289.39C408.038 290.989 407.668 292.6 406.816 293.964C405.965 295.329 404.68 296.369 403.169 296.919C399.366 297.872 395.357 297.573 391.737 296.067C388.938 295.012 386.464 293.24 384.565 290.929L379.949 285.433C379.873 285.308 379.771 285.2 379.649 285.117C379.528 285.035 379.39 284.98 379.245 284.956C379.1 284.932 378.952 284.939 378.811 284.978C378.669 285.017 378.537 285.085 378.425 285.18C378.312 285.274 378.222 285.392 378.159 285.525C378.096 285.657 378.063 285.802 378.062 285.949C378.06 286.096 378.091 286.241 378.151 286.375C378.211 286.509 378.3 286.628 378.41 286.725L380.746 289.472C381.537 290.443 381.974 291.655 381.982 292.907C382.257 298.897 386.434 308.157 394.65 309.778Z" fill="#4D4CAD"/>
    <path d="M417.966 313.781C431.247 303.055 433.604 283.948 423.231 271.105C412.857 258.262 393.681 256.547 380.399 267.274C367.118 278 364.761 297.107 375.134 309.95C385.508 322.793 404.684 324.508 417.966 313.781Z" fill="#4D4CAD"/>
    <path d="M411.11 438.453L394.183 438.975C382.752 439.332 372.804 436.832 371.623 425.456L355.355 341.953C355.136 335.936 359.917 330.028 365.248 327.226C365.248 327.226 412.291 318.515 430.62 328.902L432.049 329.396C434.566 330.808 436.682 332.839 438.196 335.295C439.711 337.752 440.574 340.554 440.705 343.437L431.966 424.577C431.059 435.595 422.184 438.123 411.11 438.453Z" fill="#B0B0FF"/>
    <path d="M437.737 334.617C437.077 335.771 436.363 336.871 435.621 337.942C429.798 346.202 426.556 356.003 426.306 366.106C426.113 374.899 426.993 384.131 424.355 389.929C421.112 397.018 409.269 397.018 403.416 391.88L403.224 391.715C401.646 390.171 399.556 389.262 397.352 389.161C395.147 389.06 392.983 389.773 391.27 391.165C387.809 394.097 383.384 395.644 378.85 395.507C376.157 395.601 373.478 395.089 371.01 394.009C368.542 392.93 366.347 391.31 364.588 389.269L371.65 425.539C372.832 436.915 382.779 439.278 394.211 439.058L411.137 438.536C422.129 438.206 431.087 435.788 432.021 424.632L440.76 343.493C440.691 340.293 439.635 337.194 437.737 334.617Z" fill="#9797EF"/>
    <path d="M379.152 354.099C374.453 368.799 347.139 426.006 338.566 423.258C329.992 420.511 345.298 363.798 349.997 349.07C354.696 334.343 362.417 324.643 371.018 327.391C379.619 330.139 383.823 339.398 379.152 354.099Z" fill="#B0B0FF"/>
    <path d="M420.37 357.203C427.158 370.942 463.897 421.884 472.003 417.9C480.109 413.916 455.296 361.847 448.509 347.998C441.721 334.15 432.653 325.659 424.547 329.616C416.441 333.573 413.665 343.355 420.37 357.203Z" fill="#B0B0FF"/>
    <path d="M458.373 404.876C448.343 405.811 385.445 414.988 385.939 420.511C386.434 426.034 450.185 425.869 460.132 424.935C470.079 424 474.448 418.972 473.871 413.422C473.294 407.871 468.43 403.942 458.373 404.876Z" fill="#FA968C"/>
    <path d="M411.439 301.04H389.456C390.723 304.127 391.085 307.51 390.501 310.795L388.385 322.17C387.093 332.666 391.38 338.024 397.37 339.646C398.939 339.987 400.568 339.94 402.115 339.509C403.661 339.078 405.079 338.276 406.246 337.173C409.159 334.425 409.131 329.314 408.362 324.973L407.51 321.84C406.246 317.609 411.439 301.04 411.439 301.04Z" fill="#FAB9AF"/>
    <path d="M411.44 301.04H389.457C390.723 304.127 391.085 307.51 390.501 310.795L389.732 314.971C391.941 317.633 394.459 320.022 397.233 322.088C398.444 323.02 399.94 323.504 401.468 323.459C402.995 323.414 404.46 322.842 405.614 321.84L407.345 320.329C407.181 314.669 411.44 301.04 411.44 301.04Z" fill="#FA968C"/>
    <path d="M386.022 293.044C386.242 296.506 386.434 300.847 383.274 301.012C380.114 301.177 376.816 295.105 376.597 291.643C376.377 288.181 378.273 287.219 381.295 287.027C384.318 286.834 385.802 289.609 386.022 293.044Z" fill="#FAB9AF"/>
    <path d="M415.424 292.687C415.204 296.149 415.012 300.49 418.172 300.655C421.332 300.82 424.63 294.748 424.849 291.286C425.069 287.823 423.173 286.862 420.151 286.669C417.128 286.477 415.644 289.17 415.424 292.687Z" fill="#FAB9AF"/>
    <path d="M421.36 286.093C421.36 301.342 411.33 311.756 405.477 316.537C404.323 317.539 402.858 318.111 401.33 318.156C399.803 318.201 398.307 317.717 397.096 316.784C392.222 313.343 388.231 308.8 385.447 303.523C382.663 298.247 381.165 292.387 381.076 286.422C381.076 268.535 390.803 261.226 401.382 261.226C411.962 261.226 421.36 268.205 421.36 286.093Z" fill="#FAB9AF"/>
    <path d="M404.433 297.798C404.484 298.277 404.428 298.762 404.268 299.217C404.109 299.671 403.85 300.085 403.51 300.427C403.171 300.769 402.759 301.032 402.305 301.195C401.852 301.358 401.368 301.417 400.888 301.37C400.062 301.286 399.3 300.889 398.758 300.261C398.216 299.632 397.936 298.819 397.975 297.99L399.404 284.252C399.428 283.999 399.502 283.753 399.622 283.528C399.741 283.304 399.904 283.106 400.101 282.945C400.298 282.784 400.524 282.663 400.768 282.591C401.011 282.518 401.267 282.494 401.52 282.521C401.87 282.561 402.196 282.719 402.446 282.969C402.695 283.218 402.853 283.544 402.894 283.894L404.433 297.798Z" fill="#FA968C"/>
    <path d="M424.107 261.885C425.866 259.522 420.975 251.609 412.374 253.834C409.313 254.599 406.089 254.368 403.168 253.175C400.361 252.139 397.35 251.772 394.375 252.103C392.396 252.257 390.487 252.903 388.822 253.983C387.156 255.062 385.788 256.542 384.84 258.286C383.979 258.908 383.153 259.577 382.367 260.292C375.277 266.721 376.541 279.525 376.541 279.525C377.815 279.783 378.962 280.468 379.792 281.468C380.622 282.468 381.085 283.722 381.103 285.021V290.846C381.142 291.084 381.265 291.299 381.448 291.455C381.632 291.611 381.865 291.696 382.106 291.696C382.347 291.696 382.58 291.611 382.763 291.455C382.947 291.299 383.069 291.084 383.109 290.846L383.274 287.192C383.386 285.288 384.094 283.468 385.297 281.989C386.5 280.51 388.138 279.446 389.979 278.948C392.336 278.315 394.517 277.149 396.354 275.541C398.056 274.013 399.561 272.277 400.833 270.376C401.729 269.047 403.042 268.056 404.565 267.558C406.088 267.06 407.734 267.085 409.241 267.628C412.771 269.321 415.661 272.105 417.485 275.569C418.973 278.17 419.751 281.117 419.738 284.114V291.341C419.714 291.486 419.722 291.635 419.761 291.778C419.8 291.92 419.87 292.052 419.965 292.165C420.061 292.277 420.18 292.368 420.314 292.43C420.448 292.492 420.593 292.524 420.741 292.524C420.889 292.524 421.034 292.492 421.168 292.43C421.302 292.368 421.421 292.277 421.517 292.165C421.612 292.052 421.682 291.92 421.721 291.778C421.76 291.635 421.768 291.486 421.744 291.341V287.686C421.751 286.447 422.177 285.246 422.953 284.279C426.718 279.498 429.383 269.689 424.08 263.177C423.947 262.986 423.879 262.758 423.884 262.526C423.889 262.294 423.967 262.07 424.107 261.885Z" fill="#4D4CAD"/>
    <path d="M429.383 408.915C428.476 405.836 427.044 402.936 425.152 400.343C423.366 398.282 415.946 400.068 411.632 401.332C409.474 401.959 407.226 402.219 404.982 402.101C388.495 401.277 356.867 401.716 349.53 403.145C339.638 405.069 334.829 412.872 335.983 418.313C337.824 427.05 343.128 429.029 353.02 427.105C370.749 422.466 388.108 416.514 404.955 409.3C409.101 407.426 413.692 406.759 418.2 407.377L429.383 408.915Z" fill="#FAB9AF"/>
    <path d="M453.922 500.469C450.597 499.425 440.979 499.618 435.126 499.453C429.273 499.288 426.416 494.205 422.679 492.446C420.803 491.598 418.753 491.211 416.697 491.316C414.642 491.421 412.642 492.016 410.863 493.051C400.531 498.821 392.507 496.21 383.384 494.507C383.384 494.507 326.75 461.534 309.191 460.298C294.27 459.281 286.878 467.002 284.79 474.284C282.042 483.461 289.324 490.001 298.365 493.051C330.432 503.877 381.845 507.641 404.68 507.256C404.68 507.256 434.055 504.728 449.58 507.504C455.461 508.548 457.164 506.789 458.071 504.756C458.978 502.723 457.192 501.486 453.922 500.469Z" fill="#FAB9AF"/>
    <path d="M439.798 399.408H354.421C349.307 399.408 345.161 403.554 345.161 408.668V462.551C345.161 467.665 349.307 471.811 354.421 471.811H439.798C444.912 471.811 449.058 467.665 449.058 462.551V408.668C449.058 403.554 444.912 399.408 439.798 399.408Z" fill="#E1E1FF"/>
    <path d="M441.502 399.408H352.718C350.714 399.408 348.792 400.205 347.374 401.622C345.957 403.039 345.161 404.961 345.161 406.965V409.218C345.161 407.214 345.957 405.292 347.374 403.875C348.792 402.458 350.714 401.662 352.718 401.662H441.502C443.506 401.662 445.428 402.458 446.845 403.875C448.262 405.292 449.058 407.214 449.058 409.218V406.965C449.058 404.961 448.262 403.039 446.845 401.622C445.428 400.205 443.506 399.408 441.502 399.408Z" fill="#B0B0FF"/>
    <path d="M542.431 531.408H276.793C265.264 531.408 254.207 526.828 246.054 518.676C237.902 510.525 233.322 499.468 233.322 487.939C233.322 476.411 237.902 465.354 246.054 457.202C254.207 449.05 265.264 444.471 276.793 444.471H345.161V447.218H276.793C265.993 447.218 255.635 451.509 247.998 459.145C240.36 466.782 236.07 477.14 236.07 487.939C236.07 498.739 240.36 509.097 247.998 516.734C255.635 524.37 265.993 528.66 276.793 528.66H542.431C553.229 528.653 563.583 524.361 571.219 516.726C578.854 509.09 583.147 498.737 583.154 487.939V350.087C583.147 339.289 578.854 328.936 571.219 321.301C563.583 313.666 553.229 309.373 542.431 309.366H524.24V306.618H542.431C553.956 306.633 565.004 311.217 573.154 319.366C581.303 327.515 585.888 338.563 585.902 350.087V487.939C585.888 499.464 581.303 510.512 573.154 518.66C565.004 526.809 553.956 531.394 542.431 531.408Z" fill="#B0B0FF"/>
    <path d="M149.842 362.122C149.842 362.122 180.728 396.029 176.771 416.252C175.671 421.667 175.732 427.253 176.95 432.643C178.167 438.033 180.513 443.104 183.833 447.521C185.484 449.538 187.65 451.072 190.101 451.961C192.552 452.85 195.198 453.061 197.759 452.572C200.32 452.082 202.701 450.91 204.651 449.18C206.601 447.449 208.048 445.224 208.838 442.74C212.466 431.749 214.114 414.795 203.343 394.517C183.778 357.698 149.842 362.122 149.842 362.122Z" fill="#1C9585"/>
    <path d="M149.842 362.122C149.842 362.122 180.728 396.029 176.771 416.252C175.671 421.667 175.732 427.253 176.95 432.643C178.167 438.033 180.513 443.104 183.833 447.521C185.484 449.538 187.65 451.072 190.101 451.961C192.552 452.85 195.198 453.061 197.759 452.572C200.32 452.082 202.701 450.91 204.651 449.18C206.601 447.449 208.048 445.224 208.838 442.74C212.466 431.749 214.114 414.795 203.343 394.517C183.778 357.698 149.842 362.122 149.842 362.122Z" fill="#B0B0FF"/>
    <path d="M176.771 416.252C175.672 421.667 175.733 427.253 176.95 432.643C178.167 438.033 180.513 443.104 183.833 447.521C184.108 447.869 184.392 448.199 184.685 448.51C186.917 450.805 188.278 453.808 188.532 457C188.532 457.412 188.532 457.797 188.532 458.209H196.226C194.76 449.846 194.052 441.367 194.11 432.875C194.11 431.474 194.11 430.128 194.11 428.507C193.924 416.61 190.849 404.936 185.152 394.49C174.957 374.899 161.383 366.051 150.336 362.094H149.622C149.622 362.094 180.728 396.029 176.771 416.252Z" fill="#8888EA"/>
    <path d="M255.36 383.197C255.36 383.197 226.755 409.08 228.431 426.336C228.909 430.957 228.404 435.628 226.95 440.042C225.497 444.455 223.126 448.511 219.995 451.944C218.438 453.495 216.491 454.597 214.359 455.132C212.227 455.668 209.99 455.618 207.885 454.988C205.779 454.357 203.883 453.17 202.397 451.551C200.911 449.931 199.889 447.941 199.441 445.789C197.298 436.227 197.298 421.967 207.959 405.838C227.304 376.739 255.36 383.197 255.36 383.197Z" fill="#1C9585"/>
    <path d="M255.36 383.197C255.36 383.197 226.755 409.08 228.431 426.336C228.909 430.957 228.404 435.628 226.95 440.042C225.497 444.455 223.126 448.511 219.995 451.944C218.438 453.495 216.491 454.597 214.359 455.132C212.227 455.668 209.99 455.618 207.885 454.988C205.779 454.357 203.883 453.17 202.397 451.551C200.911 449.931 199.889 447.941 199.441 445.789C197.298 436.227 197.298 421.967 207.959 405.838C227.304 376.739 255.36 383.197 255.36 383.197Z" fill="#8888EA"/>
    <path d="M215.626 458.182C216.265 456.045 217.505 454.137 219.198 452.686L219.995 451.917C223.126 448.484 225.497 444.427 226.95 440.014C228.404 435.601 228.909 430.93 228.431 426.308C226.755 409.053 255.36 383.169 255.36 383.169H254.783C245.193 385.587 233.13 391.879 222.99 407.459C217.377 415.743 213.86 425.267 212.741 435.211C212.741 436.475 212.521 437.711 212.493 438.893C211.894 445.386 210.763 451.818 209.114 458.127L215.626 458.182Z" fill="#B0B0FF"/>
    <path d="M212.796 506.651C216.439 506.688 219.95 505.292 222.572 502.762C225.194 500.233 226.716 496.774 226.81 493.132V449.884H180.701V493.105C180.794 496.747 182.316 500.206 184.938 502.735C187.56 505.264 191.072 506.661 194.715 506.624L212.796 506.651Z" fill="#B0B0FF"/>
    <path d="M212.796 506.651C216.439 506.688 219.95 505.292 222.572 502.762C225.194 500.233 226.716 496.774 226.81 493.132V449.884H212.796V492.968C212.813 497.913 211.233 502.732 208.289 506.706L212.796 506.651Z" fill="#9696ED"/>
    <path d="M226.838 465.133H180.701V476.564H226.838V465.133Z" fill="#9696ED"/>
    <path d="M226.838 463.238H180.701V465.133H226.838V463.238Z" fill="#F9CCEC"/>
    <defs>
        <linearGradient id="paint0_linear" x1="320.485" y1="115.02" x2="173.84" y2="260.191" gradientUnits="userSpaceOnUse">
            <stop stop-color="white"/>
            <stop offset="1" stop-color="white" stop-opacity="0"/>
        </linearGradient>
        <linearGradient id="paint1_linear" x1="39157" y1="19201.6" x2="27862.8" y2="33641.4" gradientUnits="userSpaceOnUse">
            <stop stop-color="white"/>
            <stop offset="1" stop-color="white" stop-opacity="0"/>
        </linearGradient>
    </defs>
</svg>
