<svg width="66" height="19" viewBox="0 0 66 19" fill="none" xmlns="http://www.w3.org/2000/svg">
<path d="M11.356 1.536C11.468 1.352 11.612 1.184 11.788 1.032C11.964 0.879999 12.168 0.803999 12.4 0.803999H14.128V18H11.8V5.784C11.8 5.448 11.808 5.096 11.824 4.728C11.84 4.352 11.876 3.956 11.932 3.54C11.796 3.9 11.648 4.236 11.488 4.548C11.336 4.852 11.184 5.12 11.032 5.352L2.968 17.268C2.856 17.452 2.712 17.62 2.536 17.772C2.36 17.924 2.156 18 1.924 18H0.196V0.803999H2.524V13.032C2.524 13.376 2.516 13.736 2.5 14.112C2.484 14.48 2.448 14.876 2.392 15.3C2.528 14.932 2.672 14.596 2.824 14.292C2.984 13.98 3.14 13.7 3.292 13.452L11.356 1.536ZM20.3241 16.224C20.5241 16.224 20.7241 16.204 20.9241 16.164C21.1241 16.116 21.3161 16.036 21.5001 15.924C21.6841 15.812 21.8601 15.664 22.0281 15.48C22.1961 15.288 22.3481 15.048 22.4841 14.76L23.3241 13.008L16.4121 0.803999H18.5841C18.7921 0.803999 18.9561 0.855999 19.0761 0.959999C19.1961 1.056 19.3001 1.184 19.3881 1.344L23.6361 9.144C23.9321 9.712 24.1721 10.288 24.3561 10.872C24.4361 10.584 24.5321 10.296 24.6441 10.008C24.7561 9.72 24.8801 9.432 25.0161 9.144L28.6281 1.344C28.6921 1.208 28.7881 1.084 28.9161 0.972C29.0521 0.859999 29.2201 0.803999 29.4201 0.803999H31.3401L24.3561 15.756C24.1401 16.228 23.9041 16.62 23.6481 16.932C23.4001 17.236 23.1321 17.48 22.8441 17.664C22.5561 17.84 22.2441 17.964 21.9081 18.036C21.5721 18.116 21.2121 18.156 20.8281 18.156C20.3961 18.156 20.0641 18.116 19.8321 18.036C19.6001 17.964 19.4841 17.852 19.4841 17.7V16.224H20.3241ZM38.9922 9.9H44.9202V11.712H38.9922V9.9ZM59.6311 0.611999C60.3591 0.611999 61.0391 0.719999 61.6711 0.935999C62.3031 1.152 62.8511 1.468 63.3151 1.884C63.7791 2.292 64.1431 2.792 64.4071 3.384C64.6711 3.976 64.8031 4.648 64.8031 5.4C64.8031 6.04 64.7071 6.636 64.5151 7.188C64.3231 7.732 64.0631 8.252 63.7351 8.748C63.4071 9.244 63.0271 9.728 62.5951 10.2C62.1711 10.672 61.7191 11.148 61.2391 11.628L56.7031 16.26C57.0231 16.172 57.3471 16.104 57.6751 16.056C58.0031 16 58.3191 15.972 58.6231 15.972H64.3831C64.6151 15.972 64.7991 16.04 64.9351 16.176C65.0711 16.312 65.1391 16.488 65.1391 16.704V18H53.6671V17.268C53.6671 17.116 53.6991 16.96 53.7631 16.8C53.8271 16.64 53.9271 16.492 54.0631 16.356L59.5711 10.824C60.0271 10.36 60.4431 9.916 60.8191 9.492C61.1951 9.06 61.5151 8.628 61.7791 8.196C62.0431 7.764 62.2471 7.328 62.3911 6.888C62.5351 6.44 62.6071 5.964 62.6071 5.46C62.6071 4.956 62.5271 4.516 62.3671 4.14C62.2071 3.756 61.9871 3.44 61.7071 3.192C61.4351 2.944 61.1111 2.76 60.7351 2.64C60.3591 2.512 59.9551 2.448 59.5231 2.448C59.0831 2.448 58.6791 2.512 58.3111 2.64C57.9431 2.768 57.6151 2.948 57.3271 3.18C57.0471 3.404 56.8111 3.672 56.6191 3.984C56.4271 4.296 56.2911 4.64 56.2111 5.016C56.1151 5.296 55.9831 5.484 55.8151 5.58C55.6551 5.668 55.4271 5.692 55.1311 5.652L54.0151 5.46C54.1271 4.676 54.3431 3.984 54.6631 3.384C54.9911 2.776 55.3991 2.268 55.8871 1.86C56.3831 1.452 56.9471 1.144 57.5791 0.935999C58.2111 0.719999 58.8951 0.611999 59.6311 0.611999Z" fill="#1935D8"/>
</svg>

